# MagicaVoxel @ Ephtracy

# group
o 

# material
mtllib Bunny-(Brown).mtl
usemtl palette

# normals
vn -1 0 0
vn 1 0 0
vn 0 0 1
vn 0 0 -1
vn 0 -1 0
vn 0 1 0

# texcoords
vt 0.0292969 0.5
vt 0.341797 0.5
vt 0.353516 0.5
vt 0.958984 0.5
vt 0.994141 0.5

# verts
v -0.3 0.4 0.1
v -0.3 0.4 -0.1
v -0.3 0.5 0.1
v -0.3 0.5 -0.1
v -0.2 0.3 0.1
v -0.2 0.3 -0.1
v -0.2 0.4 0.2
v -0.2 0.4 0.1
v -0.2 0.4 -0.1
v -0.2 0.4 -0.2
v -0.2 0.5 0.2
v -0.2 0.5 0.1
v -0.2 0.5 -0.1
v -0.2 0.5 -0.2
v -0.2 0.6 0.1
v -0.2 0.6 -0.1
v -0.1 0 0.3
v -0.1 0 0.1
v -0.1 0 -0.1
v -0.1 0 -0.3
v -0.1 0.1 0.3
v -0.1 0.1 0.2
v -0.1 0.1 0.1
v -0.1 0.1 -0.1
v -0.1 0.1 -0.2
v -0.1 0.1 -0.3
v -0.1 0.2 0.2
v -0.1 0.2 0.1
v -0.1 0.2 -0.1
v -0.1 0.2 -0.2
v -0.1 0.3 0.1
v -0.1 0.3 -0.1
v 2.98023e-08 0 0.4
v 2.98023e-08 0 0.3
v 2.98023e-08 0 -0.3
v 2.98023e-08 0 -0.4
v 2.98023e-08 0.1 0.4
v 2.98023e-08 0.1 0.3
v 2.98023e-08 0.1 0.2
v 2.98023e-08 0.1 -0.2
v 2.98023e-08 0.1 -0.3
v 2.98023e-08 0.1 -0.4
v 2.98023e-08 0.2 0.3
v 2.98023e-08 0.2 0.2
v 2.98023e-08 0.2 0.1
v 2.98023e-08 0.2 -0.1
v 2.98023e-08 0.2 -0.2
v 2.98023e-08 0.2 -0.3
v 2.98023e-08 0.3 0.2
v 2.98023e-08 0.3 0.1
v 2.98023e-08 0.3 -0.1
v 2.98023e-08 0.3 -0.2
v 0.1 0.3 0.2
v 0.1 0.3 0.1
v 0.1 0.3 -0.1
v 0.1 0.3 -0.2
v 0.1 0.4 0.2
v 0.1 0.4 0.1
v 0.1 0.4 -0.1
v 0.1 0.4 -0.2
v 0.1 0.5 0.1
v 0.1 0.5 -0.1
v 0.2 0.4 0.2
v 0.2 0.4 0.1
v 0.2 0.4 -0.1
v 0.2 0.4 -0.2
v 0.2 0.5 0.2
v 0.2 0.5 0.1
v 0.2 0.5 -0.1
v 0.2 0.5 -0.2
v 0.2 0.6 0.1
v 0.2 0.6 -0.1
v 0.3 0 0.2
v 0.3 0 0.1
v 0.3 0 -0.1
v 0.3 0 -0.2
v 0.3 0.2 0.2
v 0.3 0.2 0.1
v 0.3 0.2 -0.1
v 0.3 0.2 -0.2
v 0.3 0.5 0.2
v 0.3 0.5 0.1
v 0.3 0.5 -0.1
v 0.3 0.5 -0.2
v 0.3 0.6 0.1
v 0.3 0.6 -0.1
v 0.3 0.7 0.2
v 0.3 0.7 -0.2
v -0.1 0.4 0.2
v -0.1 0.4 0.1
v -0.1 0.4 -0.1
v -0.1 0.4 -0.2
v -0.1 0.5 0.2
v -0.1 0.5 0.1
v -0.1 0.5 -0.1
v -0.1 0.5 -0.2
v -0.1 0.6 0.1
v -0.1 0.6 -0.1
v 2.98023e-08 0 0.2
v 2.98023e-08 0 0.1
v 2.98023e-08 0 -0.1
v 2.98023e-08 0 -0.2
v 2.98023e-08 0.1 0.1
v 2.98023e-08 0.1 -0.1
v 2.98023e-08 0.2 0.2
v 2.98023e-08 0.2 -0.2
v 2.98023e-08 0.4 0.1
v 2.98023e-08 0.4 -0.1
v 2.98023e-08 0.5 0.1
v 2.98023e-08 0.5 -0.1
v 0.1 0 0.3
v 0.1 0 0.2
v 0.1 0 -0.2
v 0.1 0 -0.3
v 0.1 0.1 0.3
v 0.1 0.1 -0.3
v 0.1 0.2 0.3
v 0.1 0.2 0.2
v 0.1 0.2 -0.2
v 0.1 0.2 -0.3
v 0.2 0 0.4
v 0.2 0 0.3
v 0.2 0 -0.3
v 0.2 0 -0.4
v 0.2 0.1 0.4
v 0.2 0.1 0.3
v 0.2 0.1 -0.3
v 0.2 0.1 -0.4
v 0.4 0.1 0.2
v 0.4 0.1 0.1
v 0.4 0.1 -0.1
v 0.4 0.1 -0.2
v 0.4 0.2 0.1
v 0.4 0.2 -0.1
v 0.4 0.3 0.2
v 0.4 0.3 -0.2
v 0.5 0 0.2
v 0.5 0 0.1
v 0.5 0 -0.1
v 0.5 0 -0.2
v 0.5 0.1 0.2
v 0.5 0.1 0.1
v 0.5 0.1 -0.1
v 0.5 0.1 -0.2
v 0.6 0.3 0.2
v 0.6 0.3 0.1
v 0.6 0.3 -0.1
v 0.6 0.3 -0.2
v 0.6 0.4 0.2
v 0.6 0.4 0.1
v 0.6 0.4 -0.1
v 0.6 0.4 -0.2
v 0.6 0.6 0.2
v 0.6 0.6 0.1
v 0.6 0.6 -0.1
v 0.6 0.6 -0.2
v 0.6 0.7 0.2
v 0.6 0.7 -0.2
v 0.7 0.3 0.1
v 0.7 0.3 -0.1
v 0.7 0.4 0.1
v 0.7 0.4 -0.1
v 2.98023e-08 0 0.4
v 2.98023e-08 0.1 0.4
v 0.2 0 0.4
v 0.2 0.1 0.4
v -0.1 0 0.3
v -0.1 0.1 0.3
v 2.98023e-08 0 0.3
v 2.98023e-08 0.1 0.3
v 2.98023e-08 0.2 0.3
v 0.1 0.1 0.3
v 0.1 0.2 0.3
v -0.2 0.4 0.2
v -0.2 0.5 0.2
v -0.1 0.1 0.2
v -0.1 0.2 0.2
v -0.1 0.4 0.2
v -0.1 0.5 0.2
v 2.98023e-08 0.1 0.2
v 2.98023e-08 0.2 0.2
v 2.98023e-08 0.3 0.2
v 0.1 0.2 0.2
v 0.1 0.3 0.2
v 0.1 0.4 0.2
v 0.2 0.4 0.2
v 0.2 0.5 0.2
v 0.3 0 0.2
v 0.3 0.2 0.2
v 0.3 0.5 0.2
v 0.3 0.7 0.2
v 0.4 0.1 0.2
v 0.4 0.3 0.2
v 0.5 0 0.2
v 0.5 0.1 0.2
v 0.5 0.4 0.2
v 0.5 0.6 0.2
v 0.6 0.3 0.2
v 0.6 0.4 0.2
v 0.6 0.6 0.2
v 0.6 0.7 0.2
v -0.3 0.4 0.1
v -0.3 0.5 0.1
v -0.2 0.3 0.1
v -0.2 0.4 0.1
v -0.2 0.5 0.1
v -0.2 0.6 0.1
v -0.1 0.2 0.1
v -0.1 0.3 0.1
v -0.1 0.4 0.1
v -0.1 0.5 0.1
v -0.1 0.6 0.1
v 2.98023e-08 0.2 0.1
v 2.98023e-08 0.3 0.1
v 2.98023e-08 0.4 0.1
v 2.98023e-08 0.5 0.1
v 0.1 0.3 0.1
v 0.1 0.4 0.1
v 0.1 0.5 0.1
v 0.2 0.4 0.1
v 0.2 0.5 0.1
v 0.2 0.6 0.1
v 0.3 0.5 0.1
v 0.3 0.6 0.1
v 0.6 0.3 0.1
v 0.6 0.4 0.1
v 0.7 0.3 0.1
v 0.7 0.4 0.1
v -0.1 0 -0.1
v -0.1 0.1 -0.1
v 2.98023e-08 0 -0.1
v 2.98023e-08 0.1 -0.1
v 0.3 0 -0.1
v 0.3 0.2 -0.1
v 0.4 0.1 -0.1
v 0.4 0.2 -0.1
v 0.5 0 -0.1
v 0.5 0.1 -0.1
v 2.98023e-08 0 -0.2
v 2.98023e-08 0.2 -0.2
v 0.1 0 -0.2
v 0.1 0.2 -0.2
v 0.1 0 -0.3
v 0.1 0.1 -0.3
v 0.2 0 -0.3
v 0.2 0.1 -0.3
v 0.1 0 0.3
v 0.1 0.1 0.3
v 0.2 0 0.3
v 0.2 0.1 0.3
v 2.98023e-08 0 0.2
v 2.98023e-08 0.2 0.2
v 0.1 0 0.2
v 0.1 0.2 0.2
v -0.1 0 0.1
v -0.1 0.1 0.1
v 2.98023e-08 0 0.1
v 2.98023e-08 0.1 0.1
v 0.3 0 0.1
v 0.3 0.2 0.1
v 0.4 0.1 0.1
v 0.4 0.2 0.1
v 0.5 0 0.1
v 0.5 0.1 0.1
v -0.3 0.4 -0.1
v -0.3 0.5 -0.1
v -0.2 0.3 -0.1
v -0.2 0.4 -0.1
v -0.2 0.5 -0.1
v -0.2 0.6 -0.1
v -0.1 0.2 -0.1
v -0.1 0.3 -0.1
v -0.1 0.4 -0.1
v -0.1 0.5 -0.1
v -0.1 0.6 -0.1
v 2.98023e-08 0.2 -0.1
v 2.98023e-08 0.3 -0.1
v 2.98023e-08 0.4 -0.1
v 2.98023e-08 0.5 -0.1
v 0.1 0.3 -0.1
v 0.1 0.4 -0.1
v 0.1 0.5 -0.1
v 0.2 0.4 -0.1
v 0.2 0.5 -0.1
v 0.2 0.6 -0.1
v 0.3 0.5 -0.1
v 0.3 0.6 -0.1
v 0.6 0.3 -0.1
v 0.6 0.4 -0.1
v 0.7 0.3 -0.1
v 0.7 0.4 -0.1
v -0.2 0.4 -0.2
v -0.2 0.5 -0.2
v -0.1 0.1 -0.2
v -0.1 0.2 -0.2
v -0.1 0.4 -0.2
v -0.1 0.5 -0.2
v 2.98023e-08 0.1 -0.2
v 2.98023e-08 0.2 -0.2
v 2.98023e-08 0.3 -0.2
v 0.1 0.2 -0.2
v 0.1 0.3 -0.2
v 0.1 0.4 -0.2
v 0.2 0.4 -0.2
v 0.2 0.5 -0.2
v 0.3 0 -0.2
v 0.3 0.2 -0.2
v 0.3 0.5 -0.2
v 0.3 0.7 -0.2
v 0.4 0.1 -0.2
v 0.4 0.3 -0.2
v 0.5 0 -0.2
v 0.5 0.1 -0.2
v 0.5 0.4 -0.2
v 0.5 0.6 -0.2
v 0.6 0.3 -0.2
v 0.6 0.4 -0.2
v 0.6 0.6 -0.2
v 0.6 0.7 -0.2
v -0.1 0 -0.3
v -0.1 0.1 -0.3
v 2.98023e-08 0 -0.3
v 2.98023e-08 0.1 -0.3
v 2.98023e-08 0.2 -0.3
v 0.1 0.1 -0.3
v 0.1 0.2 -0.3
v 2.98023e-08 0 -0.4
v 2.98023e-08 0.1 -0.4
v 0.2 0 -0.4
v 0.2 0.1 -0.4
v 2.98023e-08 0 0.4
v 0.2 0 0.4
v -0.1 0 0.3
v 2.98023e-08 0 0.3
v 0.1 0 0.3
v 0.2 0 0.3
v 2.98023e-08 0 0.2
v 0.1 0 0.2
v 0.3 0 0.2
v 0.5 0 0.2
v -0.1 0 0.1
v 2.98023e-08 0 0.1
v 0.3 0 0.1
v 0.5 0 0.1
v -0.1 0 -0.1
v 2.98023e-08 0 -0.1
v 0.3 0 -0.1
v 0.5 0 -0.1
v 2.98023e-08 0 -0.2
v 0.1 0 -0.2
v 0.3 0 -0.2
v 0.5 0 -0.2
v -0.1 0 -0.3
v 2.98023e-08 0 -0.3
v 0.1 0 -0.3
v 0.2 0 -0.3
v 2.98023e-08 0 -0.4
v 0.2 0 -0.4
v -0.1 0.1 0.1
v 2.98023e-08 0.1 0.1
v -0.1 0.1 -0.1
v 2.98023e-08 0.1 -0.1
v 2.98023e-08 0.2 0.2
v 0.1 0.2 0.2
v 0.3 0.2 0.2
v 0.3 0.2 0.1
v 0.4 0.2 0.1
v 0.3 0.2 -0.1
v 0.4 0.2 -0.1
v 2.98023e-08 0.2 -0.2
v 0.1 0.2 -0.2
v 0.3 0.2 -0.2
v 0.4 0.3 0.2
v 0.6 0.3 0.2
v -0.2 0.3 0.1
v -0.1 0.3 0.1
v 0.6 0.3 0.1
v 0.7 0.3 0.1
v -0.2 0.3 -0.1
v -0.1 0.3 -0.1
v 0.6 0.3 -0.1
v 0.7 0.3 -0.1
v 0.4 0.3 -0.2
v 0.6 0.3 -0.2
v -0.2 0.4 0.2
v -0.1 0.4 0.2
v -0.3 0.4 0.1
v -0.2 0.4 0.1
v -0.1 0.4 0.1
v -0.3 0.4 -0.1
v -0.2 0.4 -0.1
v -0.1 0.4 -0.1
v -0.2 0.4 -0.2
v -0.1 0.4 -0.2
v 2.98023e-08 0.1 0.4
v 0.2 0.1 0.4
v -0.1 0.1 0.3
v 2.98023e-08 0.1 0.3
v 0.1 0.1 0.3
v 0.2 0.1 0.3
v -0.1 0.1 0.2
v 2.98023e-08 0.1 0.2
v 0.4 0.1 0.2
v 0.5 0.1 0.2
v 0.4 0.1 0.1
v 0.5 0.1 0.1
v 0.4 0.1 -0.1
v 0.5 0.1 -0.1
v -0.1 0.1 -0.2
v 2.98023e-08 0.1 -0.2
v 0.4 0.1 -0.2
v 0.5 0.1 -0.2
v -0.1 0.1 -0.3
v 2.98023e-08 0.1 -0.3
v 0.1 0.1 -0.3
v 0.2 0.1 -0.3
v 2.98023e-08 0.1 -0.4
v 0.2 0.1 -0.4
v 2.98023e-08 0.2 0.3
v 0.1 0.2 0.3
v -0.1 0.2 0.2
v 2.98023e-08 0.2 0.2
v 0.1 0.2 0.2
v -0.1 0.2 0.1
v 2.98023e-08 0.2 0.1
v -0.1 0.2 -0.1
v 2.98023e-08 0.2 -0.1
v -0.1 0.2 -0.2
v 2.98023e-08 0.2 -0.2
v 0.1 0.2 -0.2
v 2.98023e-08 0.2 -0.3
v 0.1 0.2 -0.3
v 2.98023e-08 0.3 0.2
v 0.1 0.3 0.2
v 2.98023e-08 0.3 0.1
v 0.1 0.3 0.1
v 2.98023e-08 0.3 -0.1
v 0.1 0.3 -0.1
v 2.98023e-08 0.3 -0.2
v 0.1 0.3 -0.2
v 0.1 0.4 0.2
v 0.2 0.4 0.2
v 2.98023e-08 0.4 0.1
v 0.1 0.4 0.1
v 0.2 0.4 0.1
v 0.6 0.4 0.1
v 0.7 0.4 0.1
v 2.98023e-08 0.4 -0.1
v 0.1 0.4 -0.1
v 0.2 0.4 -0.1
v 0.6 0.4 -0.1
v 0.7 0.4 -0.1
v 0.1 0.4 -0.2
v 0.2 0.4 -0.2
v -0.2 0.5 0.2
v -0.1 0.5 0.2
v 0.2 0.5 0.2
v 0.3 0.5 0.2
v -0.3 0.5 0.1
v -0.2 0.5 0.1
v -0.1 0.5 0.1
v 2.98023e-08 0.5 0.1
v 0.1 0.5 0.1
v 0.2 0.5 0.1
v 0.3 0.5 0.1
v -0.3 0.5 -0.1
v -0.2 0.5 -0.1
v -0.1 0.5 -0.1
v 2.98023e-08 0.5 -0.1
v 0.1 0.5 -0.1
v 0.2 0.5 -0.1
v 0.3 0.5 -0.1
v -0.2 0.5 -0.2
v -0.1 0.5 -0.2
v 0.2 0.5 -0.2
v 0.3 0.5 -0.2
v -0.2 0.6 0.1
v -0.1 0.6 0.1
v 0.2 0.6 0.1
v 0.3 0.6 0.1
v -0.2 0.6 -0.1
v -0.1 0.6 -0.1
v 0.2 0.6 -0.1
v 0.3 0.6 -0.1
v 0.3 0.7 0.2
v 0.6 0.7 0.2
v 0.3 0.7 -0.2
v 0.6 0.7 -0.2

# faces
f 3/2/1 2/2/1 1/2/1
f 4/2/1 2/2/1 3/2/1
f 8/2/1 6/2/1 5/2/1
f 9/2/1 6/2/1 8/2/1
f 11/2/1 8/2/1 7/2/1
f 12/2/1 8/2/1 11/2/1
f 13/2/1 10/2/1 9/2/1
f 14/2/1 10/2/1 13/2/1
f 15/2/1 13/2/1 12/2/1
f 16/2/1 13/2/1 15/2/1
f 21/3/1 18/3/1 17/3/1
f 22/3/1 18/3/1 21/3/1
f 23/3/1 18/3/1 22/3/1
f 24/3/1 20/3/1 19/3/1
f 25/3/1 20/3/1 24/3/1
f 26/3/1 20/3/1 25/3/1
f 27/3/1 23/3/1 22/3/1
f 27/3/1 25/3/1 24/3/1
f 27/3/1 24/3/1 23/3/1
f 28/3/1 25/3/1 27/3/1
f 29/3/1 25/3/1 28/3/1
f 30/3/1 25/3/1 29/3/1
f 31/3/1 29/3/1 28/3/1
f 32/3/1 29/3/1 31/3/1
f 37/3/1 34/3/1 33/3/1
f 38/3/1 34/3/1 37/3/1
f 41/3/1 36/3/1 35/3/1
f 42/3/1 36/3/1 41/3/1
f 43/3/1 39/3/1 38/3/1
f 44/3/1 39/3/1 43/3/1
f 47/3/1 41/3/1 40/3/1
f 48/3/1 41/3/1 47/3/1
f 49/3/1 45/3/1 44/3/1
f 50/3/1 45/3/1 49/3/1
f 51/3/1 47/3/1 46/3/1
f 52/3/1 47/3/1 51/3/1
f 57/3/1 54/3/1 53/3/1
f 58/3/1 54/3/1 57/3/1
f 59/3/1 56/3/1 55/3/1
f 60/3/1 56/3/1 59/3/1
f 61/3/1 59/3/1 58/3/1
f 62/3/1 59/3/1 61/3/1
f 67/3/1 64/3/1 63/3/1
f 68/3/1 64/3/1 67/3/1
f 69/3/1 66/3/1 65/3/1
f 70/3/1 66/3/1 69/3/1
f 71/3/1 69/3/1 68/3/1
f 72/3/1 69/3/1 71/3/1
f 77/3/1 74/3/1 73/3/1
f 78/3/1 74/3/1 77/3/1
f 79/3/1 76/3/1 75/3/1
f 80/3/1 76/3/1 79/3/1
f 85/3/1 82/3/1 81/3/1
f 86/3/1 84/3/1 83/3/1
f 87/3/1 85/3/1 81/3/1
f 87/3/1 86/3/1 85/3/1
f 88/3/1 84/3/1 86/3/1
f 88/3/1 86/3/1 87/3/1
f 89/2/2 90/2/2 93/2/2
f 93/2/2 90/2/2 94/2/2
f 91/2/2 92/2/2 95/2/2
f 95/2/2 92/2/2 96/2/2
f 94/2/2 95/2/2 97/2/2
f 97/2/2 95/2/2 98/2/2
f 99/3/2 100/3/2 103/3/2
f 101/3/2 102/3/2 104/3/2
f 99/3/2 103/3/2 105/3/2
f 103/3/2 104/3/2 105/3/2
f 104/3/2 102/3/2 106/3/2
f 105/3/2 104/3/2 106/3/2
f 107/2/2 108/2/2 109/2/2
f 109/2/2 108/2/2 110/2/2
f 111/3/2 112/3/2 115/3/2
f 113/3/2 114/3/2 116/3/2
f 115/3/2 112/3/2 117/3/2
f 117/3/2 112/3/2 118/3/2
f 113/3/2 116/3/2 119/3/2
f 119/3/2 116/3/2 120/3/2
f 121/3/2 122/3/2 125/3/2
f 125/3/2 122/3/2 126/3/2
f 123/3/2 124/3/2 127/3/2
f 127/3/2 124/3/2 128/3/2
f 129/3/2 130/3/2 133/3/2
f 131/3/2 132/3/2 134/3/2
f 129/3/2 133/3/2 135/3/2
f 133/3/2 134/3/2 135/3/2
f 134/3/2 132/3/2 136/3/2
f 135/3/2 134/3/2 136/3/2
f 137/3/2 138/3/2 141/3/2
f 141/3/2 138/3/2 142/3/2
f 139/3/2 140/3/2 143/3/2
f 143/3/2 140/3/2 144/3/2
f 145/3/2 146/3/2 149/3/2
f 149/3/2 146/3/2 150/3/2
f 147/3/2 148/3/2 151/3/2
f 151/3/2 148/3/2 152/3/2
f 149/5/2 150/5/2 153/5/2
f 150/3/2 151/3/2 154/3/2
f 153/5/2 150/5/2 154/5/2
f 151/5/2 152/5/2 155/5/2
f 154/3/2 151/3/2 155/3/2
f 155/5/2 152/5/2 156/5/2
f 153/3/2 154/3/2 157/3/2
f 154/3/2 155/3/2 157/3/2
f 155/3/2 156/3/2 157/3/2
f 157/3/2 156/3/2 158/3/2
f 159/1/2 160/1/2 161/1/2
f 161/1/2 160/1/2 162/1/2
f 165/3/3 164/3/3 163/3/3
f 166/3/3 164/3/3 165/3/3
f 169/3/3 168/3/3 167/3/3
f 170/3/3 168/3/3 169/3/3
f 172/3/3 171/3/3 170/3/3
f 173/3/3 171/3/3 172/3/3
f 178/2/3 175/2/3 174/2/3
f 179/2/3 175/2/3 178/2/3
f 180/3/3 177/3/3 176/3/3
f 181/3/3 177/3/3 180/3/3
f 183/3/3 182/3/3 181/3/3
f 184/3/3 182/3/3 183/3/3
f 186/3/3 184/3/3 183/3/3
f 186/3/3 185/3/3 184/3/3
f 189/3/3 186/3/3 183/3/3
f 189/3/3 187/3/3 186/3/3
f 190/3/3 187/3/3 189/3/3
f 192/3/3 190/3/3 189/3/3
f 192/3/3 191/3/3 190/3/3
f 192/3/3 189/3/3 188/3/3
f 193/3/3 191/3/3 192/3/3
f 194/3/3 192/3/3 188/3/3
f 195/3/3 192/3/3 194/3/3
f 196/3/3 191/3/3 193/3/3
f 197/3/3 191/3/3 196/3/3
f 198/3/3 196/3/3 193/3/3
f 199/5/3 197/5/3 196/5/3
f 199/3/3 196/3/3 198/3/3
f 200/3/3 191/3/3 197/3/3
f 200/5/3 197/5/3 199/5/3
f 201/3/3 191/3/3 200/3/3
f 205/2/3 203/2/3 202/2/3
f 206/2/3 203/2/3 205/2/3
f 209/2/3 205/2/3 204/2/3
f 210/2/3 205/2/3 209/2/3
f 211/2/3 207/2/3 206/2/3
f 212/2/3 207/2/3 211/2/3
f 213/3/3 209/3/3 208/3/3
f 214/2/3 210/2/3 209/2/3
f 214/3/3 209/3/3 213/3/3
f 214/2/3 211/2/3 210/2/3
f 215/2/3 211/2/3 214/2/3
f 216/2/3 211/2/3 215/2/3
f 217/3/3 215/3/3 214/3/3
f 218/3/3 215/3/3 217/3/3
f 220/3/3 219/3/3 218/3/3
f 221/3/3 219/3/3 220/3/3
f 223/3/3 222/3/3 221/3/3
f 224/3/3 222/3/3 223/3/3
f 227/1/3 226/1/3 225/1/3
f 228/1/3 226/1/3 227/1/3
f 231/3/3 230/3/3 229/3/3
f 232/3/3 230/3/3 231/3/3
f 235/3/3 234/3/3 233/3/3
f 236/3/3 234/3/3 235/3/3
f 237/3/3 235/3/3 233/3/3
f 238/3/3 235/3/3 237/3/3
f 241/3/3 240/3/3 239/3/3
f 242/3/3 240/3/3 241/3/3
f 245/3/3 244/3/3 243/3/3
f 246/3/3 244/3/3 245/3/3
f 247/3/4 248/3/4 249/3/4
f 249/3/4 248/3/4 250/3/4
f 251/3/4 252/3/4 253/3/4
f 253/3/4 252/3/4 254/3/4
f 255/3/4 256/3/4 257/3/4
f 257/3/4 256/3/4 258/3/4
f 259/3/4 260/3/4 261/3/4
f 261/3/4 260/3/4 262/3/4
f 259/3/4 261/3/4 263/3/4
f 263/3/4 261/3/4 264/3/4
f 265/2/4 266/2/4 268/2/4
f 268/2/4 266/2/4 269/2/4
f 267/2/4 268/2/4 272/2/4
f 272/2/4 268/2/4 273/2/4
f 269/2/4 270/2/4 274/2/4
f 274/2/4 270/2/4 275/2/4
f 271/3/4 272/3/4 276/3/4
f 272/2/4 273/2/4 277/2/4
f 276/3/4 272/3/4 277/3/4
f 273/2/4 274/2/4 277/2/4
f 277/2/4 274/2/4 278/2/4
f 278/2/4 274/2/4 279/2/4
f 277/3/4 278/3/4 280/3/4
f 280/3/4 278/3/4 281/3/4
f 281/3/4 282/3/4 283/3/4
f 283/3/4 282/3/4 284/3/4
f 284/3/4 285/3/4 286/3/4
f 286/3/4 285/3/4 287/3/4
f 288/1/4 289/1/4 290/1/4
f 290/1/4 289/1/4 291/1/4
f 292/2/4 293/2/4 296/2/4
f 296/2/4 293/2/4 297/2/4
f 294/3/4 295/3/4 298/3/4
f 298/3/4 295/3/4 299/3/4
f 299/3/4 300/3/4 301/3/4
f 301/3/4 300/3/4 302/3/4
f 301/3/4 302/3/4 304/3/4
f 302/3/4 303/3/4 304/3/4
f 301/3/4 304/3/4 307/3/4
f 304/3/4 305/3/4 307/3/4
f 307/3/4 305/3/4 308/3/4
f 307/3/4 308/3/4 310/3/4
f 308/3/4 309/3/4 310/3/4
f 306/3/4 307/3/4 310/3/4
f 310/3/4 309/3/4 311/3/4
f 306/3/4 310/3/4 312/3/4
f 312/3/4 310/3/4 313/3/4
f 311/3/4 309/3/4 314/3/4
f 314/3/4 309/3/4 315/3/4
f 311/3/4 314/3/4 316/3/4
f 314/5/4 315/5/4 317/5/4
f 316/3/4 314/3/4 317/3/4
f 315/3/4 309/3/4 318/3/4
f 317/5/4 315/5/4 318/5/4
f 318/3/4 309/3/4 319/3/4
f 320/3/4 321/3/4 322/3/4
f 322/3/4 321/3/4 323/3/4
f 323/3/4 324/3/4 325/3/4
f 325/3/4 324/3/4 326/3/4
f 327/3/4 328/3/4 329/3/4
f 329/3/4 328/3/4 330/3/4
f 334/3/5 332/3/5 331/3/5
f 335/3/5 332/3/5 334/3/5
f 336/3/5 332/3/5 335/3/5
f 337/3/5 334/3/5 333/3/5
f 337/3/5 335/3/5 334/3/5
f 338/3/5 335/3/5 337/3/5
f 341/3/5 337/3/5 333/3/5
f 342/3/5 337/3/5 341/3/5
f 343/3/5 340/3/5 339/3/5
f 344/3/5 340/3/5 343/3/5
f 349/3/5 346/3/5 345/3/5
f 351/3/5 348/3/5 347/3/5
f 352/3/5 348/3/5 351/3/5
f 353/3/5 350/3/5 349/3/5
f 353/3/5 349/3/5 345/3/5
f 354/3/5 350/3/5 353/3/5
f 355/3/5 350/3/5 354/3/5
f 357/3/5 356/3/5 355/3/5
f 357/3/5 355/3/5 354/3/5
f 358/3/5 356/3/5 357/3/5
f 361/3/5 360/3/5 359/3/5
f 362/3/5 360/3/5 361/3/5
f 366/3/5 364/3/5 363/3/5
f 366/3/5 365/3/5 364/3/5
f 368/3/5 366/3/5 363/3/5
f 368/3/5 367/3/5 366/3/5
f 369/3/5 367/3/5 368/3/5
f 370/3/5 368/3/5 363/3/5
f 371/3/5 368/3/5 370/3/5
f 372/3/5 368/3/5 371/3/5
f 377/3/5 374/3/5 373/3/5
f 379/2/5 376/2/5 375/2/5
f 380/2/5 376/2/5 379/2/5
f 381/1/5 378/1/5 377/1/5
f 381/3/5 377/3/5 373/3/5
f 382/1/5 378/1/5 381/1/5
f 383/3/5 381/3/5 373/3/5
f 384/3/5 381/3/5 383/3/5
f 388/2/5 386/2/5 385/2/5
f 389/2/5 386/2/5 388/2/5
f 390/2/5 388/2/5 387/2/5
f 391/2/5 388/2/5 390/2/5
f 393/2/5 392/2/5 391/2/5
f 394/2/5 392/2/5 393/2/5
f 395/3/6 396/3/6 398/3/6
f 398/3/6 396/3/6 399/3/6
f 399/3/6 396/3/6 400/3/6
f 397/3/6 398/3/6 401/3/6
f 401/3/6 398/3/6 402/3/6
f 403/3/6 404/3/6 405/3/6
f 405/3/6 404/3/6 406/3/6
f 407/3/6 408/3/6 411/3/6
f 411/3/6 408/3/6 412/3/6
f 409/3/6 410/3/6 413/3/6
f 413/3/6 410/3/6 414/3/6
f 415/3/6 416/3/6 417/3/6
f 414/3/6 415/3/6 417/3/6
f 417/3/6 416/3/6 418/3/6
f 419/3/6 420/3/6 422/3/6
f 422/3/6 420/3/6 423/3/6
f 421/3/6 422/3/6 424/3/6
f 424/3/6 422/3/6 425/3/6
f 426/3/6 427/3/6 428/3/6
f 428/3/6 427/3/6 429/3/6
f 429/3/6 430/3/6 431/3/6
f 431/3/6 430/3/6 432/3/6
f 433/3/6 434/3/6 435/3/6
f 435/3/6 434/3/6 436/3/6
f 437/3/6 438/3/6 439/3/6
f 439/3/6 438/3/6 440/3/6
f 441/3/6 442/3/6 444/3/6
f 444/3/6 442/3/6 445/3/6
f 443/3/6 444/3/6 448/3/6
f 448/3/6 444/3/6 449/3/6
f 446/1/6 447/1/6 451/1/6
f 451/1/6 447/1/6 452/1/6
f 449/3/6 450/3/6 453/3/6
f 453/3/6 450/3/6 454/3/6
f 455/2/6 456/2/6 460/2/6
f 460/2/6 456/2/6 461/2/6
f 457/3/6 458/3/6 464/3/6
f 464/3/6 458/3/6 465/3/6
f 459/2/6 460/2/6 466/2/6
f 466/2/6 460/2/6 467/2/6
f 461/2/6 462/2/6 468/2/6
f 468/2/6 462/2/6 469/2/6
f 463/3/6 464/3/6 470/3/6
f 470/3/6 464/3/6 471/3/6
f 467/2/6 468/2/6 473/2/6
f 473/2/6 468/2/6 474/2/6
f 471/3/6 472/3/6 475/3/6
f 475/3/6 472/3/6 476/3/6
f 477/2/6 478/2/6 481/2/6
f 481/2/6 478/2/6 482/2/6
f 479/3/6 480/3/6 483/3/6
f 483/3/6 480/3/6 484/3/6
f 485/3/6 486/3/6 487/3/6
f 487/3/6 486/3/6 488/3/6
