# MagicaVoxel @ Ephtracy

# group
o 

# material
mtllib Flower-1.mtl
usemtl palette

# normals
vn -1 0 0
vn 1 0 0
vn 0 0 1
vn 0 0 -1
vn 0 -1 0
vn 0 1 0

# texcoords
vt 0.0605469 0.5
vt 0.583984 0.5

# verts
v -0.2 1.9 0.2
v -0.2 1.9 -0.1
v -0.2 2 0.2
v -0.2 2 0.1
v -0.2 2 -0.1
v -0.2 2 -0.2
v -0.2 2.1 0
v -0.2 2.1 -0.2
v -0.2 2.2 0.1
v -0.2 2.2 0
v -0.1 1.5 0.1
v -0.1 1.5 0
v -0.1 1.9 0.1
v -0.1 1.9 0
v -0.1 2 0.2
v -0.1 2 0.1
v -0.1 2.1 0.2
v -0.1 2.1 0.1
v -0.1 2.1 0
v -0.1 2.1 -0.1
v -0.1 2.2 0
v -0.1 2.2 -0.1
v 0.1 1.7 0.2
v 0.1 1.7 0.1
v 0.1 1.8 0.2
v 0.1 1.8 0.1
v 0 1.5 0.1
v 0 1.5 0
v 0 1.7 0.1
v 0 1.7 0
v 0 1.8 0.1
v 0 1.8 0
v 0 1.9 0.1
v 0 1.9 0
v 0 1.9 -0.1
v 0 2 0.2
v 0 2 0.1
v 0 2 0
v 0 2 -0.1
v 0 2 -0.2
v 0 2.1 0.2
v 0 2.1 0.1
v 0 2.1 -0.1
v 0 2.1 -0.2
v 0 2.2 0.1
v 0 2.2 -0.1
v 0.1 1.7 0.1
v 0.1 1.7 0
v 0.1 1.8 0.1
v 0.1 1.8 0
v 0.1 1.9 0.2
v 0.1 1.9 0
v 0.1 2 0.2
v 0.1 2 0.1
v 0.1 2 0
v 0.1 2 -0.1
v 0.1 2.1 0.1
v 0.1 2.1 -0.1
v 0.2 1.7 0.2
v 0.2 1.7 0.1
v 0.2 1.8 0.2
v 0.2 1.8 0.1
v -0.2 1.9 0.2
v -0.2 2 0.2
v -0.1 2 0.2
v -0.1 2.1 0.2
v 0 2 0.2
v 0 2.1 0.2
v 0.1 1.7 0.2
v 0.1 1.8 0.2
v 0.1 1.9 0.2
v 0.1 2 0.2
v 0.2 1.7 0.2
v 0.2 1.8 0.2
v -0.2 2 0.1
v -0.2 2.2 0.1
v -0.1 1.5 0.1
v -0.1 1.9 0.1
v -0.1 2 0.1
v -0.1 2.1 0.1
v 0 1.5 0.1
v 0 1.7 0.1
v 0 1.8 0.1
v 0 1.9 0.1
v 0 2 0.1
v 0 2.1 0.1
v 0 2.2 0.1
v 0.1 1.7 0.1
v 0.1 1.8 0.1
v 0.1 2 0.1
v 0.1 2.1 0.1
v 0.1 1.7 0.1
v 0.1 1.8 0.1
v 0.2 1.7 0.1
v 0.2 1.8 0.1
v -0.2 2.1 0
v -0.2 2.2 0
v -0.1 1.5 0
v -0.1 1.9 0
v -0.1 2.1 0
v -0.1 2.2 0
v 0 1.5 0
v 0 1.7 0
v 0 1.8 0
v 0 1.9 0
v 0 2 0
v 0.1 1.7 0
v 0.1 1.8 0
v 0.1 1.9 0
v 0.1 2 0
v -0.2 1.9 -0.1
v -0.2 2 -0.1
v -0.1 2.1 -0.1
v -0.1 2.2 -0.1
v 0 1.9 -0.1
v 0 2 -0.1
v 0 2.1 -0.1
v 0 2.2 -0.1
v 0.1 2 -0.1
v 0.1 2.1 -0.1
v -0.2 2 -0.2
v -0.2 2.1 -0.2
v 0 2 -0.2
v 0 2.1 -0.2
v -0.1 1.5 0.1
v 0 1.5 0.1
v -0.1 1.5 0
v 0 1.5 0
v 0.1 1.7 0.2
v 0.2 1.7 0.2
v 0 1.7 0.1
v 0.1 1.7 0.1
v 0.2 1.7 0.1
v 0 1.7 0
v 0.1 1.7 0
v -0.2 1.9 0.2
v 0.1 1.9 0.2
v -0.1 1.9 0.1
v 0 1.9 0.1
v -0.1 1.9 0
v 0 1.9 0
v 0.1 1.9 0
v -0.2 1.9 -0.1
v 0 1.9 -0.1
v 0 2 0
v 0.1 2 0
v -0.2 2 -0.1
v 0 2 -0.1
v 0.1 2 -0.1
v -0.2 2 -0.2
v 0 2 -0.2
v 0.1 1.8 0.2
v 0.2 1.8 0.2
v 0 1.8 0.1
v 0.1 1.8 0.1
v 0.2 1.8 0.1
v 0 1.8 0
v 0.1 1.8 0
v -0.2 2 0.2
v -0.1 2 0.2
v 0 2 0.2
v 0.1 2 0.2
v -0.2 2 0.1
v -0.1 2 0.1
v 0 2 0.1
v 0.1 2 0.1
v -0.1 2.1 0.2
v 0 2.1 0.2
v -0.1 2.1 0.1
v 0 2.1 0.1
v 0.1 2.1 0.1
v -0.2 2.1 0
v -0.1 2.1 0
v -0.1 2.1 -0.1
v 0 2.1 -0.1
v 0.1 2.1 -0.1
v -0.2 2.1 -0.2
v 0 2.1 -0.2
v -0.2 2.2 0.1
v 0 2.2 0.1
v -0.2 2.2 0
v -0.1 2.2 0
v -0.1 2.2 -0.1
v 0 2.2 -0.1

# faces
f 3/1/1 2/1/1 1/1/1
f 4/1/1 2/1/1 3/1/1
f 5/1/1 2/1/1 4/1/1
f 7/1/1 6/1/1 5/1/1
f 7/1/1 5/1/1 4/1/1
f 8/1/1 6/1/1 7/1/1
f 9/1/1 7/1/1 4/1/1
f 10/1/1 7/1/1 9/1/1
f 13/2/1 12/2/1 11/2/1
f 14/2/1 12/2/1 13/2/1
f 17/1/1 16/1/1 15/1/1
f 18/1/1 16/1/1 17/1/1
f 21/1/1 20/1/1 19/1/1
f 22/1/1 20/1/1 21/1/1
f 25/2/1 24/2/1 23/2/1
f 26/2/1 24/2/1 25/2/1
f 27/2/2 28/2/2 29/2/2
f 29/2/2 28/2/2 30/2/2
f 31/2/2 32/2/2 33/2/2
f 33/2/2 32/2/2 34/2/2
f 34/1/2 35/1/2 38/1/2
f 38/1/2 35/1/2 39/1/2
f 36/1/2 37/1/2 41/1/2
f 41/1/2 37/1/2 42/1/2
f 39/1/2 40/1/2 43/1/2
f 43/1/2 40/1/2 44/1/2
f 42/1/2 43/1/2 45/1/2
f 45/1/2 43/1/2 46/1/2
f 47/2/2 48/2/2 49/2/2
f 49/2/2 48/2/2 50/2/2
f 51/1/2 52/1/2 53/1/2
f 53/1/2 52/1/2 54/1/2
f 54/1/2 52/1/2 55/1/2
f 54/1/2 55/1/2 57/1/2
f 55/1/2 56/1/2 57/1/2
f 57/1/2 56/1/2 58/1/2
f 59/2/2 60/2/2 61/2/2
f 61/2/2 60/2/2 62/2/2
f 65/1/3 64/1/3 63/1/3
f 67/1/3 65/1/3 63/1/3
f 67/1/3 66/1/3 65/1/3
f 68/1/3 66/1/3 67/1/3
f 71/1/3 67/1/3 63/1/3
f 72/1/3 67/1/3 71/1/3
f 73/2/3 70/2/3 69/2/3
f 74/2/3 70/2/3 73/2/3
f 79/1/3 76/1/3 75/1/3
f 80/1/3 76/1/3 79/1/3
f 81/2/3 78/2/3 77/2/3
f 82/2/3 78/2/3 81/2/3
f 83/2/3 78/2/3 82/2/3
f 84/2/3 78/2/3 83/2/3
f 86/1/3 76/1/3 80/1/3
f 87/1/3 76/1/3 86/1/3
f 88/2/3 83/2/3 82/2/3
f 89/2/3 83/2/3 88/2/3
f 90/1/3 86/1/3 85/1/3
f 91/1/3 86/1/3 90/1/3
f 92/2/4 93/2/4 94/2/4
f 94/2/4 93/2/4 95/2/4
f 96/1/4 97/1/4 100/1/4
f 100/1/4 97/1/4 101/1/4
f 98/2/4 99/2/4 102/2/4
f 102/2/4 99/2/4 103/2/4
f 103/2/4 99/2/4 104/2/4
f 104/2/4 99/2/4 105/2/4
f 103/2/4 104/2/4 107/2/4
f 107/2/4 104/2/4 108/2/4
f 105/1/4 106/1/4 109/1/4
f 109/1/4 106/1/4 110/1/4
f 111/1/4 112/1/4 115/1/4
f 115/1/4 112/1/4 116/1/4
f 113/1/4 114/1/4 117/1/4
f 117/1/4 114/1/4 118/1/4
f 116/1/4 117/1/4 119/1/4
f 119/1/4 117/1/4 120/1/4
f 121/1/4 122/1/4 123/1/4
f 123/1/4 122/1/4 124/1/4
f 127/2/5 126/2/5 125/2/5
f 128/2/5 126/2/5 127/2/5
f 132/2/5 130/2/5 129/2/5
f 133/2/5 130/2/5 132/2/5
f 134/2/5 132/2/5 131/2/5
f 135/2/5 132/2/5 134/2/5
f 138/1/5 137/1/5 136/1/5
f 139/1/5 137/1/5 138/1/5
f 140/1/5 138/1/5 136/1/5
f 141/1/5 137/1/5 139/1/5
f 142/1/5 137/1/5 141/1/5
f 143/1/5 140/1/5 136/1/5
f 143/1/5 141/1/5 140/1/5
f 144/1/5 141/1/5 143/1/5
f 148/1/5 146/1/5 145/1/5
f 149/1/5 146/1/5 148/1/5
f 150/1/5 148/1/5 147/1/5
f 151/1/5 148/1/5 150/1/5
f 152/2/6 153/2/6 155/2/6
f 155/2/6 153/2/6 156/2/6
f 154/2/6 155/2/6 157/2/6
f 157/2/6 155/2/6 158/2/6
f 159/1/6 160/1/6 163/1/6
f 163/1/6 160/1/6 164/1/6
f 161/1/6 162/1/6 165/1/6
f 165/1/6 162/1/6 166/1/6
f 167/1/6 168/1/6 169/1/6
f 169/1/6 168/1/6 170/1/6
f 172/1/6 173/1/6 174/1/6
f 170/1/6 171/1/6 175/1/6
f 175/1/6 171/1/6 176/1/6
f 172/1/6 174/1/6 177/1/6
f 174/1/6 175/1/6 177/1/6
f 177/1/6 175/1/6 178/1/6
f 179/1/6 180/1/6 181/1/6
f 181/1/6 180/1/6 182/1/6
f 182/1/6 180/1/6 183/1/6
f 183/1/6 180/1/6 184/1/6
