# MagicaVoxel @ Ephtracy

# group
o 

# material
mtllib Uncle-John-(Head).mtl
usemtl palette

# normals
vn -1 0 0
vn 1 0 0
vn 0 0 1
vn 0 0 -1
vn 0 -1 0
vn 0 1 0

# texcoords
vt 0.248047 0.5
vt 0.400391 0.5

# verts
v -0.2 2 0.2
v -0.2 2 0.1
v -0.2 2 -0.2
v -0.2 2 -0.3
v -0.2 2.1 0.2
v -0.2 2.1 0.1
v -0.2 2.1 -0.2
v -0.2 2.1 -0.3
v -0.2 2.2 0.1
v -0.2 2.2 -0.2
v -0.1 1.8 0.1
v -0.1 1.8 -0.2
v -0.1 1.9 0.2
v -0.1 1.9 0.1
v -0.1 2 0.2
v -0.1 2 0.1
v -0.1 2 -0.2
v -0.1 2.1 0.1
v -0.1 2.1 -0.2
v 0 1.9 -0.2
v 0 1.9 -0.3
v 0 2 -0.2
v 0 2 -0.3
v 0.2 1.8 0.1
v 0.2 1.8 -0.2
v 0.2 1.9 0.2
v 0.2 1.9 0.1
v 0.2 1.9 -0.2
v 0.2 1.9 -0.3
v 0.2 2.1 0.2
v 0.2 2.1 0.1
v 0.2 2.1 -0.2
v 0.2 2.1 -0.3
v 0.2 2.2 0.1
v 0.2 2.2 -0.2
v 0.3 1.9 0.1
v 0.3 1.9 -0.2
v 0.3 2.1 0.1
v 0.3 2.1 -0.2
v -0.2 2 0.2
v -0.2 2.1 0.2
v -0.1 1.9 0.2
v -0.1 2 0.2
v 0.2 1.9 0.2
v 0.2 2.1 0.2
v -0.2 2.1 0.1
v -0.2 2.2 0.1
v -0.1 1.8 0.1
v -0.1 1.9 0.1
v 0.2 1.8 0.1
v 0.2 1.9 0.1
v 0.2 2.1 0.1
v 0.2 2.2 0.1
v 0.3 1.9 0.1
v 0.3 2.1 0.1
v -0.2 2 -0.2
v -0.2 2.1 -0.2
v -0.1 2 -0.2
v -0.1 2.1 -0.2
v -0.2 2 0.1
v -0.2 2.1 0.1
v -0.1 2 0.1
v -0.1 2.1 0.1
v -0.2 2.1 -0.2
v -0.2 2.2 -0.2
v -0.1 1.8 -0.2
v -0.1 2 -0.2
v 0 1.9 -0.2
v 0 2 -0.2
v 0.2 1.8 -0.2
v 0.2 1.9 -0.2
v 0.2 2.1 -0.2
v 0.2 2.2 -0.2
v 0.3 1.9 -0.2
v 0.3 2.1 -0.2
v -0.2 2 -0.3
v -0.2 2.1 -0.3
v 0 1.9 -0.3
v 0 2 -0.3
v 0.2 1.9 -0.3
v 0.2 2.1 -0.3
v -0.1 1.8 0.1
v 0.2 1.8 0.1
v -0.1 1.8 -0.2
v 0.2 1.8 -0.2
v -0.1 1.9 0.2
v 0.2 1.9 0.2
v -0.1 1.9 0.1
v 0.2 1.9 0.1
v 0.3 1.9 0.1
v 0 1.9 -0.2
v 0.2 1.9 -0.2
v 0.3 1.9 -0.2
v 0 1.9 -0.3
v 0.2 1.9 -0.3
v -0.2 2 0.2
v -0.1 2 0.2
v -0.2 2 0.1
v -0.1 2 0.1
v -0.2 2 -0.2
v -0.1 2 -0.2
v 0 2 -0.2
v -0.2 2 -0.3
v 0 2 -0.3
v -0.2 2.1 0.1
v -0.1 2.1 0.1
v -0.2 2.1 -0.2
v -0.1 2.1 -0.2
v -0.2 2.1 0.2
v 0.2 2.1 0.2
v -0.2 2.1 0.1
v 0.2 2.1 0.1
v 0.3 2.1 0.1
v -0.2 2.1 -0.2
v 0.2 2.1 -0.2
v 0.3 2.1 -0.2
v -0.2 2.1 -0.3
v 0.2 2.1 -0.3
v -0.2 2.2 0.1
v 0.2 2.2 0.1
v -0.2 2.2 -0.2
v 0.2 2.2 -0.2

# faces
f 5/2/1 2/2/1 1/2/1
f 6/2/1 2/2/1 5/2/1
f 7/2/1 4/2/1 3/2/1
f 8/2/1 4/2/1 7/2/1
f 9/2/1 7/2/1 6/2/1
f 10/2/1 7/2/1 9/2/1
f 14/1/1 12/1/1 11/1/1
f 15/2/1 14/2/1 13/2/1
f 16/1/1 12/1/1 14/1/1
f 16/2/1 14/2/1 15/2/1
f 17/1/1 12/1/1 16/1/1
f 18/1/1 17/1/1 16/1/1
f 19/1/1 17/1/1 18/1/1
f 22/2/1 21/2/1 20/2/1
f 23/2/1 21/2/1 22/2/1
f 24/1/2 25/1/2 27/1/2
f 27/1/2 25/1/2 28/1/2
f 26/2/2 27/2/2 30/2/2
f 30/2/2 27/2/2 31/2/2
f 28/2/2 29/2/2 32/2/2
f 32/2/2 29/2/2 33/2/2
f 31/2/2 32/2/2 34/2/2
f 34/2/2 32/2/2 35/2/2
f 36/2/2 37/2/2 38/2/2
f 38/2/2 37/2/2 39/2/2
f 43/2/3 41/2/3 40/2/3
f 44/2/3 43/2/3 42/2/3
f 45/2/3 41/2/3 43/2/3
f 45/2/3 43/2/3 44/2/3
f 50/1/3 49/1/3 48/1/3
f 51/1/3 49/1/3 50/1/3
f 52/2/3 47/2/3 46/2/3
f 53/2/3 47/2/3 52/2/3
f 54/2/3 52/2/3 51/2/3
f 55/2/3 52/2/3 54/2/3
f 58/2/3 57/2/3 56/2/3
f 59/2/3 57/2/3 58/2/3
f 60/2/4 61/2/4 62/2/4
f 62/2/4 61/2/4 63/2/4
f 66/1/4 67/1/4 68/1/4
f 68/1/4 67/1/4 69/1/4
f 66/1/4 68/1/4 70/1/4
f 70/1/4 68/1/4 71/1/4
f 64/2/4 65/2/4 72/2/4
f 72/2/4 65/2/4 73/2/4
f 71/2/4 72/2/4 74/2/4
f 74/2/4 72/2/4 75/2/4
f 76/2/4 77/2/4 79/2/4
f 78/2/4 79/2/4 80/2/4
f 79/2/4 77/2/4 81/2/4
f 80/2/4 79/2/4 81/2/4
f 84/1/5 83/1/5 82/1/5
f 85/1/5 83/1/5 84/1/5
f 88/2/5 87/2/5 86/2/5
f 89/2/5 87/2/5 88/2/5
f 92/2/5 90/2/5 89/2/5
f 93/2/5 90/2/5 92/2/5
f 94/2/5 92/2/5 91/2/5
f 95/2/5 92/2/5 94/2/5
f 98/2/5 97/2/5 96/2/5
f 99/2/5 97/2/5 98/2/5
f 103/2/5 101/2/5 100/2/5
f 103/2/5 102/2/5 101/2/5
f 104/2/5 102/2/5 103/2/5
f 107/2/5 106/2/5 105/2/5
f 108/2/5 106/2/5 107/2/5
f 109/2/6 110/2/6 111/2/6
f 111/2/6 110/2/6 112/2/6
f 112/2/6 113/2/6 115/2/6
f 115/2/6 113/2/6 116/2/6
f 114/2/6 115/2/6 117/2/6
f 117/2/6 115/2/6 118/2/6
f 119/2/6 120/2/6 121/2/6
f 121/2/6 120/2/6 122/2/6
