# MagicaVoxel @ Ephtracy

# group
o 

# material
mtllib Uncle-John-(Torso).mtl
usemtl palette

# normals
vn -1 0 0
vn 1 0 0
vn 0 0 1
vn 0 0 -1
vn 0 -1 0
vn 0 1 0

# texcoords
vt 0.248047 0.5
vt 0.763672 0.5
vt 0.923828 0.5
vt 0.955078 0.5

# verts
v -0.3 1 0.3
v -0.3 1 0.2
v -0.3 1.1 0.3
v -0.3 1.1 0.2
v -0.3 1.1 0.1
v -0.3 1.2 0.1
v -0.3 1.2 -2.98023e-08
v -0.3 1.3 0.2
v -0.3 1.3 -2.98023e-08
v -0.2 1.1 0.3
v -0.2 1.1 0.2
v -0.2 1.2 0.3
v -0.2 1.2 0.2
v -0.2 1.3 0.2
v -0.2 1.3 -2.98023e-08
v -0.2 1.5 0.2
v -0.2 1.5 0.1
v -0.2 1.6 0.1
v -0.2 1.6 -2.98023e-08
v -0.2 2.3 -0.2
v -0.2 2.3 -0.3
v -0.2 2.4 -0.2
v -0.2 2.4 -0.3
v -0.1 1.5 0.2
v -0.1 1.5 0.1
v -0.1 1.6 0.2
v -0.1 1.6 0.1
v -0.1 1.6 -2.98023e-08
v -0.1 1.7 0.1
v -0.1 1.7 -2.98023e-08
v -0.1 2.2 -0.2
v -0.1 2.2 -0.3
v -0.1 2.3 -0.2
v -0.1 2.3 -0.3
v 2.98023e-08 1.2 -0.1
v 2.98023e-08 1.2 -0.3
v 2.98023e-08 1.3 -0.1
v 2.98023e-08 1.3 -0.3
v 2.98023e-08 1.6 0.2
v 2.98023e-08 1.6 0.1
v 2.98023e-08 1.7 0.1
v 2.98023e-08 1.7 -2.98023e-08
v 2.98023e-08 2 0.2
v 2.98023e-08 2 -2.98023e-08
v 2.98023e-08 2.1 -0.2
v 2.98023e-08 2.1 -0.3
v 2.98023e-08 2.2 -0.2
v 2.98023e-08 2.2 -0.3
v 0.1 1.2 -0.3
v 0.1 1.2 -0.4
v 0.1 1.3 -0.1
v 0.1 1.3 -0.3
v 0.1 1.3 -0.4
v 0.1 1.4 -0.1
v 0.1 1.4 -0.2
v 0.1 1.4 -0.3
v 0.1 1.8 -2.98023e-08
v 0.1 1.8 -0.1
v 0.1 1.8 -0.2
v 0.1 2 0.3
v 0.1 2 0.2
v 0.1 2 -2.98023e-08
v 0.1 2 -0.1
v 0.1 2.1 0.3
v 0.1 2.1 0.2
v 0.1 2.1 -2.98023e-08
v 0.2 1.6 -2.98023e-08
v 0.2 1.6 -0.1
v 0.2 1.8 -2.98023e-08
v 0.2 1.8 -0.1
v 0.2 1.8 -0.2
v 0.2 1.9 -0.1
v 0.2 1.9 -0.2
v 0.2 2 -2.98023e-08
v 0.2 2 -0.1
v 0.2 2 -0.2
v 0.2 2 -0.3
v 0.2 2.1 0.3
v 0.2 2.1 0.2
v 0.2 2.1 0.1
v 0.2 2.1 -2.98023e-08
v 0.2 2.1 -0.1
v 0.2 2.1 -0.2
v 0.2 2.1 -0.3
v 0.2 2.2 0.3
v 0.2 2.2 0.2
v 0.2 2.2 0.1
v 0.2 2.2 -2.98023e-08
v -0.1 1 0.3
v -0.1 1 0.2
v -0.1 1.1 0.3
v -0.1 1.1 0.2
v -0.1 1.2 0.1
v -0.1 1.2 -2.98023e-08
v -0.1 1.3 0.1
v -0.1 1.3 -2.98023e-08
v -0.1 1.6 0.1
v -0.1 1.6 -2.98023e-08
v 2.98023e-08 1.1 0.3
v 2.98023e-08 1.1 0.1
v 2.98023e-08 1.2 0.3
v 2.98023e-08 1.2 0.2
v 2.98023e-08 1.3 0.2
v 2.98023e-08 1.3 0.1
v 2.98023e-08 1.5 0.2
v 2.98023e-08 1.5 0.1
v 2.98023e-08 2.3 -0.2
v 2.98023e-08 2.3 -0.3
v 2.98023e-08 2.4 -0.2
v 2.98023e-08 2.4 -0.3
v 0.1 1.5 0.2
v 0.1 1.5 0.1
v 0.1 1.6 0.2
v 0.1 1.6 0.1
v 0.1 2.2 -0.2
v 0.1 2.2 -0.3
v 0.1 2.3 -0.2
v 0.1 2.3 -0.3
v 0.2 1.2 -0.3
v 0.2 1.2 -0.4
v 0.2 1.3 -0.2
v 0.2 1.3 -0.3
v 0.2 1.3 -0.4
v 0.2 1.4 -0.2
v 0.2 1.4 -0.3
v 0.3 1.2 -0.1
v 0.3 1.2 -0.3
v 0.3 1.3 -0.2
v 0.3 1.3 -0.3
v 0.3 1.4 -0.1
v 0.3 1.4 -0.2
v 0.3 1.6 0.2
v 0.3 1.6 -0.1
v 0.3 1.7 0.2
v 0.3 1.7 0.1
v 0.3 1.9 0.1
v 0.3 1.9 -2.98023e-08
v 0.3 1.9 -0.1
v 0.3 1.9 -0.2
v 0.3 2 -2.98023e-08
v 0.3 2 -0.1
v 0.3 2.1 0.3
v 0.3 2.1 0.2
v 0.3 2.1 0.1
v 0.3 2.1 -2.98023e-08
v 0.3 2.1 -0.2
v 0.3 2.1 -0.3
v 0.3 2.2 0.3
v 0.3 2.2 0.2
v 0.3 2.2 0.1
v 0.3 2.2 -2.98023e-08
v 0.3 2.2 -0.2
v 0.3 2.2 -0.3
v 0.4 1.7 0.2
v 0.4 1.7 0.1
v 0.4 1.9 0.1
v 0.4 1.9 -2.98023e-08
v 0.4 2 0.3
v 0.4 2 0.2
v 0.4 2 -2.98023e-08
v 0.4 2 -0.1
v 0.4 2 -0.2
v 0.4 2 -0.3
v 0.4 2.1 0.3
v 0.4 2.1 0.2
v 0.4 2.1 -0.1
v 0.4 2.1 -0.2
v 0.4 2.1 -0.3
v -0.3 1 0.3
v -0.3 1.1 0.3
v -0.2 1.1 0.3
v -0.2 1.2 0.3
v -0.1 1 0.3
v -0.1 1.1 0.3
v 2.98023e-08 1.1 0.3
v 2.98023e-08 1.2 0.3
v 0.1 2 0.3
v 0.1 2.1 0.3
v 0.2 2 0.3
v 0.2 2.1 0.3
v 0.2 2.2 0.3
v 0.3 2 0.3
v 0.3 2.1 0.3
v 0.3 2.2 0.3
v 0.4 2 0.3
v 0.4 2.1 0.3
v -0.3 1.1 0.2
v -0.3 1.3 0.2
v -0.2 1.1 0.2
v -0.2 1.2 0.2
v -0.2 1.3 0.2
v -0.2 1.5 0.2
v -0.1 1.5 0.2
v -0.1 1.6 0.2
v 2.98023e-08 1.2 0.2
v 2.98023e-08 1.3 0.2
v 2.98023e-08 1.5 0.2
v 2.98023e-08 1.6 0.2
v 2.98023e-08 2 0.2
v 0.1 1.5 0.2
v 0.1 1.6 0.2
v 0.1 2 0.2
v 0.2 2 0.2
v 0.3 1.6 0.2
v 0.3 1.7 0.2
v 0.3 2 0.2
v 0.4 1.7 0.2
v 0.4 2 0.2
v -0.2 1.5 0.1
v -0.2 1.6 0.1
v -0.1 1.5 0.1
v -0.1 1.6 0.1
v -0.1 1.7 0.1
v 2.98023e-08 1.6 0.1
v 2.98023e-08 1.7 0.1
v 0.2 2.1 0.1
v 0.2 2.2 0.1
v 0.3 2.1 0.1
v 0.3 2.2 0.1
v 2.98023e-08 1.2 -0.1
v 2.98023e-08 1.3 -0.1
v 0.1 1.3 -0.1
v 0.1 1.4 -0.1
v 0.1 1.8 -0.1
v 0.2 1.6 -0.1
v 0.2 1.8 -0.1
v 0.3 1.2 -0.1
v 0.3 1.4 -0.1
v 0.3 1.6 -0.1
v -0.2 2.3 -0.2
v -0.2 2.4 -0.2
v -0.1 2.2 -0.2
v -0.1 2.3 -0.2
v 2.98023e-08 2.1 -0.2
v 2.98023e-08 2.2 -0.2
v 2.98023e-08 2.3 -0.2
v 2.98023e-08 2.4 -0.2
v 0.1 2.2 -0.2
v 0.1 2.3 -0.2
v 0.2 2.1 -0.2
v 0.3 2.1 -0.2
v 0.3 2.2 -0.2
v -0.3 1 0.2
v -0.3 1.1 0.2
v -0.1 1 0.2
v -0.1 1.1 0.2
v 0.2 2.1 0.2
v 0.2 2.2 0.2
v 0.3 2.1 0.2
v 0.3 2.2 0.2
v -0.3 1.1 0.1
v -0.3 1.2 0.1
v -0.1 1.2 0.1
v -0.1 1.3 0.1
v -0.1 1.6 0.1
v 2.98023e-08 1.1 0.1
v 2.98023e-08 1.3 0.1
v 2.98023e-08 1.5 0.1
v 0.1 1.5 0.1
v 0.1 1.6 0.1
v 0.3 1.7 0.1
v 0.3 1.9 0.1
v 0.4 1.7 0.1
v 0.4 1.9 0.1
v -0.3 1.2 -2.98023e-08
v -0.3 1.3 -2.98023e-08
v -0.2 1.3 -2.98023e-08
v -0.2 1.6 -2.98023e-08
v -0.1 1.2 -2.98023e-08
v -0.1 1.3 -2.98023e-08
v -0.1 1.6 -2.98023e-08
v -0.1 1.7 -2.98023e-08
v 2.98023e-08 1.7 -2.98023e-08
v 2.98023e-08 2 -2.98023e-08
v 0.1 1.8 -2.98023e-08
v 0.1 2 -2.98023e-08
v 0.1 2.1 -2.98023e-08
v 0.2 1.6 -2.98023e-08
v 0.2 1.8 -2.98023e-08
v 0.2 2 -2.98023e-08
v 0.2 2.1 -2.98023e-08
v 0.2 2.2 -2.98023e-08
v 0.3 1.9 -2.98023e-08
v 0.3 2 -2.98023e-08
v 0.3 2.1 -2.98023e-08
v 0.3 2.2 -2.98023e-08
v 0.4 1.9 -2.98023e-08
v 0.4 2 -2.98023e-08
v 0.1 1.8 -0.1
v 0.1 2 -0.1
v 0.2 1.8 -0.1
v 0.2 1.9 -0.1
v 0.2 2 -0.1
v 0.3 1.9 -0.1
v 0.3 2 -0.1
v 0.1 1.4 -0.2
v 0.1 1.8 -0.2
v 0.2 1.3 -0.2
v 0.2 1.4 -0.2
v 0.2 1.8 -0.2
v 0.2 1.9 -0.2
v 0.3 1.3 -0.2
v 0.3 1.4 -0.2
v 0.3 1.9 -0.2
v -0.2 2.3 -0.3
v -0.2 2.4 -0.3
v -0.1 2.2 -0.3
v -0.1 2.3 -0.3
v 2.98023e-08 1.2 -0.3
v 2.98023e-08 1.3 -0.3
v 2.98023e-08 2.1 -0.3
v 2.98023e-08 2.2 -0.3
v 2.98023e-08 2.3 -0.3
v 2.98023e-08 2.4 -0.3
v 0.1 1.2 -0.3
v 0.1 1.3 -0.3
v 0.1 1.4 -0.3
v 0.1 2.2 -0.3
v 0.1 2.3 -0.3
v 0.2 1.2 -0.3
v 0.2 1.3 -0.3
v 0.2 1.4 -0.3
v 0.2 2 -0.3
v 0.2 2.1 -0.3
v 0.3 1.2 -0.3
v 0.3 1.3 -0.3
v 0.3 2.1 -0.3
v 0.3 2.2 -0.3
v 0.4 2 -0.3
v 0.4 2.1 -0.3
v 0.1 1.2 -0.4
v 0.1 1.3 -0.4
v 0.2 1.2 -0.4
v 0.2 1.3 -0.4
v -0.3 1 0.3
v -0.1 1 0.3
v -0.3 1 0.2
v -0.1 1 0.2
v -0.1 1.1 0.3
v 2.98023e-08 1.1 0.3
v -0.3 1.1 0.2
v -0.1 1.1 0.2
v -0.3 1.1 0.1
v 2.98023e-08 1.1 0.1
v -0.3 1.2 0.1
v -0.1 1.2 0.1
v -0.3 1.2 -2.98023e-08
v -0.1 1.2 -2.98023e-08
v 2.98023e-08 1.2 -0.1
v 0.3 1.2 -0.1
v 2.98023e-08 1.2 -0.3
v 0.1 1.2 -0.3
v 0.2 1.2 -0.3
v 0.3 1.2 -0.3
v 0.1 1.2 -0.4
v 0.2 1.2 -0.4
v 2.98023e-08 1.5 0.2
v 0.1 1.5 0.2
v 2.98023e-08 1.5 0.1
v 0.1 1.5 0.1
v 0.1 1.6 0.2
v 0.3 1.6 0.2
v -0.1 1.6 0.1
v 0.1 1.6 0.1
v -0.1 1.6 -2.98023e-08
v 0.2 1.6 -2.98023e-08
v 0.2 1.6 -0.1
v 0.3 1.6 -0.1
v 0.3 1.7 0.2
v 0.4 1.7 0.2
v 0.3 1.7 0.1
v 0.4 1.7 0.1
v 0.1 1.8 -2.98023e-08
v 0.2 1.8 -2.98023e-08
v 0.1 1.8 -0.1
v 0.2 1.8 -0.1
v 0.3 1.9 0.1
v 0.4 1.9 0.1
v 0.3 1.9 -2.98023e-08
v 0.4 1.9 -2.98023e-08
v 0.1 2 0.3
v 0.2 2 0.3
v 0.3 2 0.3
v 0.4 2 0.3
v 0.1 2 0.2
v 0.2 2 0.2
v 0.3 2 0.2
v 0.4 2 0.2
v 0.3 2 -2.98023e-08
v 0.4 2 -2.98023e-08
v 0.2 2 -0.1
v 0.3 2 -0.1
v 0.4 2 -0.1
v 0.2 2 -0.2
v 0.4 2 -0.2
v 0.2 2 -0.3
v 0.4 2 -0.3
v 2.98023e-08 2.1 -0.2
v 0.2 2.1 -0.2
v 2.98023e-08 2.1 -0.3
v 0.2 2.1 -0.3
v -0.1 2.2 -0.2
v 2.98023e-08 2.2 -0.2
v -0.1 2.2 -0.3
v 2.98023e-08 2.2 -0.3
v -0.2 2.3 -0.2
v -0.1 2.3 -0.2
v -0.2 2.3 -0.3
v -0.1 2.3 -0.3
v -0.3 1.1 0.3
v -0.2 1.1 0.3
v -0.3 1.1 0.2
v -0.2 1.1 0.2
v -0.2 1.2 0.3
v 2.98023e-08 1.2 0.3
v -0.2 1.2 0.2
v 2.98023e-08 1.2 0.2
v -0.3 1.3 0.2
v -0.2 1.3 0.2
v -0.3 1.3 -2.98023e-08
v -0.2 1.3 -2.98023e-08
v 2.98023e-08 1.3 -0.1
v 0.1 1.3 -0.1
v 0.2 1.3 -0.2
v 0.3 1.3 -0.2
v 2.98023e-08 1.3 -0.3
v 0.1 1.3 -0.3
v 0.2 1.3 -0.3
v 0.3 1.3 -0.3
v 0.1 1.3 -0.4
v 0.2 1.3 -0.4
v 0.1 1.4 -0.2
v 0.2 1.4 -0.2
v 0.1 1.4 -0.3
v 0.2 1.4 -0.3
v -0.2 1.5 0.2
v -0.1 1.5 0.2
v -0.2 1.5 0.1
v -0.1 1.5 0.1
v -0.1 1.6 0.2
v 2.98023e-08 1.6 0.2
v -0.2 1.6 0.1
v -0.1 1.6 0.1
v 2.98023e-08 1.6 0.1
v -0.2 1.6 -2.98023e-08
v -0.1 1.6 -2.98023e-08
v -0.1 1.7 0.1
v 2.98023e-08 1.7 0.1
v -0.1 1.7 -2.98023e-08
v 2.98023e-08 1.7 -2.98023e-08
v 0.1 1.8 -0.1
v 0.2 1.8 -0.1
v 0.1 1.8 -0.2
v 0.2 1.8 -0.2
v 0.2 1.9 -0.1
v 0.3 1.9 -0.1
v 0.2 1.9 -0.2
v 0.3 1.9 -0.2
v 2.98023e-08 2 0.2
v 0.1 2 0.2
v 2.98023e-08 2 -2.98023e-08
v 0.1 2 -2.98023e-08
v 0.2 2 -2.98023e-08
v 0.1 2 -0.1
v 0.2 2 -0.1
v 0.1 2.1 0.3
v 0.2 2.1 0.3
v 0.3 2.1 0.3
v 0.4 2.1 0.3
v 0.1 2.1 0.2
v 0.2 2.1 0.2
v 0.3 2.1 0.2
v 0.4 2.1 0.2
v 0.2 2.1 0.1
v 0.3 2.1 0.1
v 0.1 2.1 -2.98023e-08
v 0.2 2.1 -2.98023e-08
v 0.3 2.1 -2.98023e-08
v 0.2 2.1 -0.1
v 0.4 2.1 -0.1
v 0.2 2.1 -0.2
v 0.3 2.1 -0.2
v 0.4 2.1 -0.2
v 0.3 2.1 -0.3
v 0.4 2.1 -0.3
v 0.2 2.2 0.3
v 0.3 2.2 0.3
v 0.2 2.2 0.2
v 0.3 2.2 0.2
v 0.2 2.2 0.1
v 0.3 2.2 0.1
v 0.2 2.2 -2.98023e-08
v 0.3 2.2 -2.98023e-08
v 0.1 2.2 -0.2
v 0.3 2.2 -0.2
v 0.1 2.2 -0.3
v 0.3 2.2 -0.3
v 2.98023e-08 2.3 -0.2
v 0.1 2.3 -0.2
v 2.98023e-08 2.3 -0.3
v 0.1 2.3 -0.3
v -0.2 2.4 -0.2
v 2.98023e-08 2.4 -0.2
v -0.2 2.4 -0.3
v 2.98023e-08 2.4 -0.3

# faces
f 3/4/1 2/4/1 1/4/1
f 4/4/1 2/4/1 3/4/1
f 6/4/1 5/4/1 4/4/1
f 8/4/1 6/4/1 4/4/1
f 8/4/1 7/4/1 6/4/1
f 9/4/1 7/4/1 8/4/1
f 12/4/1 11/4/1 10/4/1
f 13/4/1 11/4/1 12/4/1
f 16/2/1 15/2/1 14/2/1
f 17/2/1 15/2/1 16/2/1
f 18/2/1 15/2/1 17/2/1
f 19/2/1 15/2/1 18/2/1
f 22/1/1 21/1/1 20/1/1
f 23/1/1 21/1/1 22/1/1
f 26/2/1 25/2/1 24/2/1
f 27/2/1 25/2/1 26/2/1
f 29/2/1 28/2/1 27/2/1
f 30/2/1 28/2/1 29/2/1
f 33/1/1 32/1/1 31/1/1
f 34/1/1 32/1/1 33/1/1
f 37/4/1 36/4/1 35/4/1
f 38/4/1 36/4/1 37/4/1
f 41/2/1 40/2/1 39/2/1
f 43/2/1 41/2/1 39/2/1
f 43/2/1 42/2/1 41/2/1
f 44/2/1 42/2/1 43/2/1
f 47/1/1 46/1/1 45/1/1
f 48/1/1 46/1/1 47/1/1
f 52/4/1 50/4/1 49/4/1
f 53/4/1 50/4/1 52/4/1
f 54/4/1 52/4/1 51/4/1
f 55/4/1 52/4/1 54/4/1
f 56/4/1 52/4/1 55/4/1
f 58/2/1 55/2/1 54/2/1
f 59/2/1 55/2/1 58/2/1
f 62/2/1 58/2/1 57/2/1
f 63/2/1 58/2/1 62/2/1
f 64/2/1 61/2/1 60/2/1
f 65/3/1 62/3/1 61/3/1
f 65/2/1 61/2/1 64/2/1
f 66/3/1 62/3/1 65/3/1
f 69/2/1 68/2/1 67/2/1
f 70/2/1 68/2/1 69/2/1
f 72/2/1 71/2/1 70/2/1
f 73/2/1 71/2/1 72/2/1
f 81/3/1 75/3/1 74/3/1
f 82/2/1 76/2/1 75/2/1
f 82/3/1 75/3/1 81/3/1
f 83/1/1 77/1/1 76/1/1
f 83/2/1 76/2/1 82/2/1
f 84/1/1 77/1/1 83/1/1
f 85/2/1 79/2/1 78/2/1
f 86/2/1 79/2/1 85/2/1
f 87/1/1 81/1/1 80/1/1
f 88/1/1 81/1/1 87/1/1
f 89/4/2 90/4/2 91/4/2
f 91/4/2 90/4/2 92/4/2
f 93/4/2 94/4/2 95/4/2
f 95/4/2 94/4/2 96/4/2
f 95/2/2 96/2/2 97/2/2
f 97/2/2 96/2/2 98/2/2
f 99/4/2 100/4/2 101/4/2
f 101/4/2 100/4/2 102/4/2
f 102/4/2 100/4/2 103/4/2
f 103/4/2 100/4/2 104/4/2
f 103/2/2 104/2/2 105/2/2
f 105/2/2 104/2/2 106/2/2
f 107/1/2 108/1/2 109/1/2
f 109/1/2 108/1/2 110/1/2
f 111/2/2 112/2/2 113/2/2
f 113/2/2 112/2/2 114/2/2
f 115/1/2 116/1/2 117/1/2
f 117/1/2 116/1/2 118/1/2
f 119/4/2 120/4/2 122/4/2
f 122/4/2 120/4/2 123/4/2
f 121/4/2 122/4/2 124/4/2
f 124/4/2 122/4/2 125/4/2
f 126/4/2 127/4/2 128/4/2
f 128/4/2 127/4/2 129/4/2
f 126/4/2 128/4/2 130/4/2
f 130/4/2 128/4/2 131/4/2
f 130/2/2 131/2/2 133/2/2
f 132/2/2 133/2/2 134/2/2
f 134/2/2 133/2/2 135/2/2
f 135/2/2 133/2/2 136/2/2
f 136/2/2 133/2/2 137/2/2
f 133/2/2 131/2/2 138/2/2
f 137/2/2 133/2/2 138/2/2
f 138/2/2 131/2/2 139/2/2
f 137/2/2 138/2/2 140/2/2
f 140/2/2 138/2/2 141/2/2
f 142/2/2 143/2/2 148/2/2
f 148/2/2 143/2/2 149/2/2
f 144/1/2 145/1/2 150/1/2
f 150/1/2 145/1/2 151/1/2
f 146/1/2 147/1/2 152/1/2
f 152/1/2 147/1/2 153/1/2
f 154/2/2 155/2/2 156/2/2
f 154/2/2 156/2/2 159/2/2
f 156/2/2 157/2/2 159/2/2
f 159/2/2 157/2/2 160/2/2
f 158/2/2 159/2/2 164/2/2
f 159/3/2 160/3/2 165/3/2
f 164/2/2 159/2/2 165/2/2
f 160/3/2 161/3/2 165/3/2
f 161/2/2 162/2/2 166/2/2
f 165/3/2 161/3/2 166/3/2
f 162/1/2 163/1/2 167/1/2
f 166/2/2 162/2/2 167/2/2
f 167/1/2 163/1/2 168/1/2
f 171/4/3 170/4/3 169/4/3
f 173/4/3 171/4/3 169/4/3
f 173/4/3 172/4/3 171/4/3
f 174/4/3 172/4/3 173/4/3
f 175/4/3 172/4/3 174/4/3
f 176/4/3 172/4/3 175/4/3
f 179/2/3 178/2/3 177/2/3
f 180/2/3 178/2/3 179/2/3
f 182/1/3 180/1/3 179/1/3
f 183/2/3 181/2/3 180/2/3
f 183/1/3 180/1/3 182/1/3
f 184/2/3 181/2/3 183/2/3
f 185/2/3 183/2/3 182/2/3
f 186/2/3 183/2/3 185/2/3
f 189/4/3 188/4/3 187/4/3
f 190/4/3 188/4/3 189/4/3
f 191/4/3 188/4/3 190/4/3
f 193/2/3 192/2/3 191/2/3
f 195/4/3 191/4/3 190/4/3
f 196/2/3 194/2/3 193/2/3
f 196/4/3 191/4/3 195/4/3
f 196/2/3 193/2/3 191/2/3
f 197/2/3 194/2/3 196/2/3
f 198/2/3 194/2/3 197/2/3
f 200/2/3 199/2/3 198/2/3
f 200/2/3 198/2/3 197/2/3
f 201/2/3 199/2/3 200/2/3
f 202/2/3 199/2/3 201/2/3
f 203/2/3 202/2/3 201/2/3
f 204/2/3 203/2/3 201/2/3
f 205/2/3 203/2/3 204/2/3
f 206/2/3 203/2/3 205/2/3
f 207/2/3 206/2/3 205/2/3
f 208/2/3 206/2/3 207/2/3
f 211/2/3 210/2/3 209/2/3
f 212/2/3 210/2/3 211/2/3
f 214/2/3 213/2/3 212/2/3
f 215/2/3 213/2/3 214/2/3
f 218/1/3 217/1/3 216/1/3
f 219/1/3 217/1/3 218/1/3
f 222/4/3 221/4/3 220/4/3
f 225/2/3 224/2/3 223/2/3
f 226/2/3 224/2/3 225/2/3
f 227/4/3 222/4/3 220/4/3
f 227/4/3 223/4/3 222/4/3
f 228/2/3 225/2/3 223/2/3
f 228/4/3 223/4/3 227/4/3
f 229/2/3 225/2/3 228/2/3
f 233/1/3 231/1/3 230/1/3
f 235/1/3 233/1/3 232/1/3
f 236/1/3 231/1/3 233/1/3
f 236/1/3 233/1/3 235/1/3
f 237/1/3 231/1/3 236/1/3
f 238/1/3 235/1/3 234/1/3
f 238/1/3 236/1/3 235/1/3
f 239/1/3 236/1/3 238/1/3
f 240/1/3 238/1/3 234/1/3
f 241/1/3 238/1/3 240/1/3
f 242/1/3 238/1/3 241/1/3
f 243/4/4 244/4/4 245/4/4
f 245/4/4 244/4/4 246/4/4
f 247/2/4 248/2/4 249/2/4
f 249/2/4 248/2/4 250/2/4
f 251/4/4 252/4/4 253/4/4
f 251/4/4 253/4/4 256/4/4
f 253/4/4 254/4/4 256/4/4
f 254/2/4 255/2/4 257/2/4
f 256/4/4 254/4/4 257/4/4
f 257/2/4 255/2/4 258/2/4
f 258/2/4 255/2/4 259/2/4
f 259/2/4 255/2/4 260/2/4
f 261/2/4 262/2/4 263/2/4
f 263/2/4 262/2/4 264/2/4
f 265/4/4 266/4/4 267/4/4
f 265/4/4 267/4/4 269/4/4
f 267/2/4 268/2/4 270/2/4
f 269/4/4 267/4/4 270/4/4
f 270/2/4 268/2/4 271/2/4
f 271/2/4 272/2/4 273/2/4
f 273/2/4 274/2/4 275/2/4
f 275/2/4 274/2/4 276/2/4
f 271/2/4 273/2/4 278/2/4
f 273/2/4 275/2/4 278/2/4
f 278/2/4 275/2/4 279/2/4
f 276/3/4 277/3/4 280/3/4
f 280/3/4 277/3/4 281/3/4
f 281/1/4 282/1/4 285/1/4
f 285/1/4 282/1/4 286/1/4
f 283/2/4 284/2/4 287/2/4
f 287/2/4 284/2/4 288/2/4
f 289/2/4 290/2/4 291/2/4
f 291/2/4 290/2/4 292/2/4
f 292/2/4 290/2/4 293/2/4
f 292/2/4 293/2/4 294/2/4
f 294/2/4 293/2/4 295/2/4
f 296/2/4 297/2/4 299/2/4
f 299/2/4 297/2/4 300/2/4
f 298/4/4 299/4/4 302/4/4
f 300/2/4 301/2/4 303/2/4
f 302/4/4 299/4/4 303/4/4
f 299/2/4 300/2/4 303/2/4
f 303/2/4 301/2/4 304/2/4
f 305/1/4 306/1/4 308/1/4
f 307/1/4 308/1/4 312/1/4
f 308/1/4 306/1/4 313/1/4
f 312/1/4 308/1/4 313/1/4
f 313/1/4 306/1/4 314/1/4
f 309/4/4 310/4/4 315/4/4
f 315/4/4 310/4/4 316/4/4
f 311/1/4 312/1/4 318/1/4
f 312/1/4 313/1/4 318/1/4
f 318/1/4 313/1/4 319/1/4
f 316/4/4 317/4/4 321/4/4
f 321/4/4 317/4/4 322/4/4
f 311/1/4 318/1/4 324/1/4
f 320/4/4 321/4/4 325/4/4
f 325/4/4 321/4/4 326/4/4
f 323/1/4 324/1/4 327/1/4
f 324/1/4 318/1/4 327/1/4
f 327/1/4 318/1/4 328/1/4
f 323/1/4 327/1/4 329/1/4
f 329/1/4 327/1/4 330/1/4
f 331/4/4 332/4/4 333/4/4
f 333/4/4 332/4/4 334/4/4
f 337/4/5 336/4/5 335/4/5
f 338/4/5 336/4/5 337/4/5
f 342/4/5 340/4/5 339/4/5
f 343/4/5 342/4/5 341/4/5
f 344/4/5 340/4/5 342/4/5
f 344/4/5 342/4/5 343/4/5
f 347/4/5 346/4/5 345/4/5
f 348/4/5 346/4/5 347/4/5
f 351/4/5 350/4/5 349/4/5
f 352/4/5 350/4/5 351/4/5
f 353/4/5 350/4/5 352/4/5
f 354/4/5 350/4/5 353/4/5
f 355/4/5 353/4/5 352/4/5
f 356/4/5 353/4/5 355/4/5
f 359/2/5 358/2/5 357/2/5
f 360/2/5 358/2/5 359/2/5
f 364/2/5 362/2/5 361/2/5
f 365/2/5 364/2/5 363/2/5
f 366/2/5 362/2/5 364/2/5
f 366/2/5 364/2/5 365/2/5
f 367/2/5 362/2/5 366/2/5
f 368/2/5 362/2/5 367/2/5
f 371/2/5 370/2/5 369/2/5
f 372/2/5 370/2/5 371/2/5
f 375/2/5 374/2/5 373/2/5
f 376/2/5 374/2/5 375/2/5
f 379/2/5 378/2/5 377/2/5
f 380/2/5 378/2/5 379/2/5
f 385/2/5 382/2/5 381/2/5
f 386/1/5 383/1/5 382/1/5
f 386/2/5 382/2/5 385/2/5
f 387/2/5 384/2/5 383/2/5
f 387/1/5 383/1/5 386/1/5
f 388/2/5 384/2/5 387/2/5
f 392/3/5 390/3/5 389/3/5
f 393/3/5 390/3/5 392/3/5
f 394/2/5 392/2/5 391/2/5
f 394/2/5 393/2/5 392/2/5
f 395/2/5 393/2/5 394/2/5
f 396/1/5 395/1/5 394/1/5
f 397/1/5 395/1/5 396/1/5
f 400/1/5 399/1/5 398/1/5
f 401/1/5 399/1/5 400/1/5
f 404/1/5 403/1/5 402/1/5
f 405/1/5 403/1/5 404/1/5
f 408/1/5 407/1/5 406/1/5
f 409/1/5 407/1/5 408/1/5
f 410/4/6 411/4/6 412/4/6
f 412/4/6 411/4/6 413/4/6
f 414/4/6 415/4/6 416/4/6
f 416/4/6 415/4/6 417/4/6
f 418/4/6 419/4/6 420/4/6
f 420/4/6 419/4/6 421/4/6
f 422/4/6 423/4/6 426/4/6
f 426/4/6 423/4/6 427/4/6
f 424/4/6 425/4/6 428/4/6
f 428/4/6 425/4/6 429/4/6
f 427/4/6 428/4/6 430/4/6
f 430/4/6 428/4/6 431/4/6
f 432/4/6 433/4/6 434/4/6
f 434/4/6 433/4/6 435/4/6
f 436/2/6 437/2/6 438/2/6
f 438/2/6 437/2/6 439/2/6
f 440/2/6 441/2/6 443/2/6
f 443/2/6 441/2/6 444/2/6
f 442/2/6 443/2/6 445/2/6
f 445/2/6 443/2/6 446/2/6
f 447/2/6 448/2/6 449/2/6
f 449/2/6 448/2/6 450/2/6
f 451/2/6 452/2/6 453/2/6
f 453/2/6 452/2/6 454/2/6
f 455/2/6 456/2/6 457/2/6
f 457/2/6 456/2/6 458/2/6
f 459/2/6 460/2/6 461/2/6
f 461/2/6 460/2/6 462/2/6
f 462/2/6 463/2/6 464/2/6
f 464/2/6 463/2/6 465/2/6
f 466/2/6 467/2/6 470/2/6
f 470/2/6 467/2/6 471/2/6
f 468/2/6 469/2/6 472/2/6
f 472/2/6 469/2/6 473/2/6
f 470/3/6 471/3/6 474/3/6
f 471/3/6 472/3/6 474/3/6
f 472/3/6 473/3/6 474/3/6
f 474/3/6 473/3/6 475/3/6
f 470/3/6 474/3/6 476/3/6
f 476/3/6 474/3/6 477/3/6
f 475/3/6 473/3/6 478/3/6
f 477/3/6 478/3/6 479/3/6
f 478/3/6 473/3/6 480/3/6
f 479/3/6 478/3/6 480/3/6
f 479/2/6 480/2/6 481/2/6
f 481/2/6 480/2/6 482/2/6
f 482/2/6 480/2/6 483/2/6
f 482/1/6 483/1/6 484/1/6
f 484/1/6 483/1/6 485/1/6
f 486/2/6 487/2/6 488/2/6
f 488/2/6 487/2/6 489/2/6
f 490/1/6 491/1/6 492/1/6
f 492/1/6 491/1/6 493/1/6
f 494/1/6 495/1/6 496/1/6
f 496/1/6 495/1/6 497/1/6
f 498/1/6 499/1/6 500/1/6
f 500/1/6 499/1/6 501/1/6
f 502/1/6 503/1/6 504/1/6
f 504/1/6 503/1/6 505/1/6
