# MagicaVoxel @ Ephtracy

# group
o 

# material
mtllib Pumpkin-(Bits)-3.mtl
usemtl palette

# normals
vn -1 0 0
vn 1 0 0
vn 0 0 1
vn 0 0 -1
vn 0 -1 0
vn 0 1 0

# texcoords
vt 0.306641 0.5
vt 0.427734 0.5
vt 0.583984 0.5

# verts
v -0.6 1.7 -0.3
v -0.6 1.7 -0.4
v -0.6 1.9 -0.3
v -0.6 1.9 -0.4
v -0.5 1.7 -0.2
v -0.5 1.7 -0.3
v -0.5 1.7 -0.4
v -0.5 1.7 -0.5
v -0.5 1.8 -0.2
v -0.5 1.8 -0.3
v -0.5 1.9 -0.2
v -0.5 1.9 -0.3
v -0.5 1.9 -0.4
v -0.5 1.9 -0.5
v -0.5 2 -0.2
v -0.5 2 -0.4
v -0.4 1.7 0
v -0.4 1.7 -0.1
v -0.4 1.7 -0.2
v -0.4 1.7 -0.5
v -0.4 1.7 -0.6
v -0.4 1.8 0.1
v -0.4 1.8 0
v -0.4 1.8 -0.1
v -0.4 1.8 -0.2
v -0.4 1.8 -0.3
v -0.4 1.9 0.2
v -0.4 1.9 0.1
v -0.4 1.9 -0.2
v -0.4 1.9 -0.3
v -0.4 1.9 -0.4
v -0.4 1.9 -0.5
v -0.4 1.9 -0.6
v -0.4 2 0.3
v -0.4 2 0.2
v -0.4 2 -0.2
v -0.4 2 -0.3
v -0.4 2 -0.4
v -0.4 2 -0.5
v -0.4 2.1 0.3
v -0.4 2.1 -0.3
v -0.3 1.9 0.5
v -0.3 1.9 0.2
v -0.3 2 0.5
v -0.3 2 0.4
v -0.3 2 0.3
v -0.3 2 0.2
v -0.3 2 -0.3
v -0.3 2 -0.4
v -0.3 2.1 0.4
v -0.3 2.1 0.3
v -0.3 2.1 -0.3
v -0.3 2.1 -0.4
v -0.2 1.8 0.1
v -0.2 1.8 0
v -0.2 1.9 0.1
v -0.2 1.9 0
v -0.1 1.7 0.1
v -0.1 1.7 0
v -0.1 1.8 0.4
v -0.1 1.8 0.3
v -0.1 1.8 0.2
v -0.1 1.8 0.1
v -0.1 1.8 0
v -0.1 1.9 0.4
v -0.1 1.9 0.3
v -0.1 1.9 0.2
v -0.1 1.9 0.1
v -0.1 2.1 0.1
v -0.1 2.1 -0.2
v -0.1 2.2 0.1
v -0.1 2.2 -0.1
v -0.1 2.2 -0.2
v -0.1 2.2 -0.3
v -0.1 2.3 -0.1
v -0.1 2.3 -0.3
v 0 1.7 0.4
v 0 1.7 0.1
v 0 1.8 0.4
v 0 1.8 0.3
v 0 1.8 0.2
v 0 1.8 0.1
v 0 1.9 0.3
v 0 1.9 0.2
v 0 2.2 0.2
v 0 2.2 0.1
v 0 2.2 0
v 0 2.3 0.2
v 0 2.3 0
v 0.1 2.3 0.2
v 0.1 2.3 0.1
v 0.1 2.4 0.2
v 0.1 2.4 0.1
v 0.2 1.8 0.5
v 0.2 1.8 0.4
v 0.2 1.9 0.5
v 0.2 1.9 0.4
v 0.2 2.2 0.4
v 0.2 2.2 0.3
v 0.2 2.3 0.3
v 0.2 2.3 0.2
v 0.2 2.4 0.4
v 0.2 2.4 0.2
v 0.3 1.8 0.6
v 0.3 1.8 0.5
v 0.3 1.8 -0.2
v 0.3 1.8 -0.3
v 0.3 1.9 0.6
v 0.3 1.9 0.5
v 0.3 1.9 -0.2
v 0.3 1.9 -0.3
v 0.4 1.7 -0.2
v 0.4 1.7 -0.3
v 0.4 1.8 -0.2
v 0.4 1.8 -0.3
v 0.5 1.6 -0.3
v 0.5 1.6 -0.4
v 0.5 1.7 -0.3
v 0.5 1.7 -0.4
v 0.5 1.8 0.4
v 0.5 1.8 0.3
v 0.5 1.8 -0.1
v 0.5 1.8 -0.2
v 0.5 1.9 0.4
v 0.5 1.9 0.3
v 0.5 1.9 -0.1
v 0.5 1.9 -0.2
v -0.3 1.8 0.1
v -0.3 1.8 0
v -0.3 1.9 0.1
v -0.3 1.9 0
v -0.1 1.7 0
v -0.1 1.7 -0.3
v -0.1 1.8 0
v -0.1 1.8 -0.1
v -0.1 1.8 -0.2
v -0.1 1.8 -0.3
v -0.1 1.9 -0.1
v -0.1 1.9 -0.2
v 0 1.8 0
v 0 1.8 -0.1
v 0 1.8 -0.2
v 0 1.8 -0.3
v 0 1.9 0
v 0 1.9 -0.1
v 0 1.9 -0.2
v 0 1.9 -0.3
v 0 2.1 -0.1
v 0 2.1 -0.2
v 0 2.2 -0.1
v 0 2.2 -0.2
v 0 2.2 -0.3
v 0 2.3 -0.1
v 0 2.3 -0.3
v 0.1 2.1 0.1
v 0.1 2.1 -0.1
v 0.1 2.2 0.1
v 0.1 2.2 0
v 0.1 2.2 -0.1
v 0.1 2.3 0.1
v 0.1 2.3 0
v 0.2 1.7 0.1
v 0.2 1.7 0
v 0.2 1.8 0.1
v 0.2 1.8 0
v 0.2 2.2 0.2
v 0.2 2.2 0.1
v 0.2 2.3 0.2
v 0.2 2.3 0.1
v 0.3 1.7 0.4
v 0.3 1.7 0.3
v 0.3 1.7 0.1
v 0.3 1.8 0.5
v 0.3 1.8 0.4
v 0.3 1.8 0.3
v 0.3 1.8 0.2
v 0.3 1.8 0.1
v 0.3 1.8 0
v 0.3 1.9 0.5
v 0.3 1.9 0.4
v 0.3 1.9 0.3
v 0.3 1.9 0.2
v 0.3 1.9 0.1
v 0.3 1.9 0
v 0.3 2 0.4
v 0.3 2 0.3
v 0.3 2 -0.3
v 0.3 2 -0.4
v 0.3 2.1 0.4
v 0.3 2.1 0.3
v 0.3 2.1 -0.3
v 0.3 2.1 -0.4
v 0.3 2.2 0.4
v 0.3 2.2 0.3
v 0.3 2.3 0.3
v 0.3 2.3 0.1
v 0.3 2.4 0.4
v 0.3 2.4 0.1
v 0.4 1.7 -0.5
v 0.4 1.7 -0.6
v 0.4 1.8 0.6
v 0.4 1.8 0.5
v 0.4 1.8 0.4
v 0.4 1.8 0.3
v 0.4 1.9 0.6
v 0.4 1.9 0.5
v 0.4 1.9 0.4
v 0.4 1.9 0.3
v 0.4 1.9 -0.4
v 0.4 1.9 -0.5
v 0.4 1.9 -0.6
v 0.4 2 0.5
v 0.4 2 0.4
v 0.4 2 0.3
v 0.4 2 -0.3
v 0.4 2 -0.4
v 0.4 2 -0.5
v 0.4 2.1 0.3
v 0.4 2.1 -0.3
v 0.5 1.7 -0.2
v 0.5 1.7 -0.3
v 0.5 1.7 -0.4
v 0.5 1.7 -0.5
v 0.5 1.8 -0.2
v 0.5 1.8 -0.3
v 0.5 1.9 0.4
v 0.5 1.9 0.3
v 0.5 1.9 -0.1
v 0.5 1.9 -0.4
v 0.5 1.9 -0.5
v 0.5 2 0.4
v 0.5 2 -0.4
v 0.6 1.6 -0.3
v 0.6 1.6 -0.4
v 0.6 1.8 0.4
v 0.6 1.8 0.3
v 0.6 1.8 -0.1
v 0.6 1.8 -0.3
v 0.6 1.9 0.4
v 0.6 1.9 0.3
v 0.6 1.9 -0.1
v 0.6 1.9 -0.4
v 0.3 1.8 0.6
v 0.3 1.9 0.6
v 0.4 1.8 0.6
v 0.4 1.9 0.6
v -0.3 1.9 0.5
v -0.3 2 0.5
v 0.2 1.8 0.5
v 0.2 1.9 0.5
v 0.3 1.8 0.5
v 0.3 1.9 0.5
v 0.4 1.9 0.5
v 0.4 2 0.5
v -0.3 2 0.4
v -0.3 2.1 0.4
v -0.1 1.8 0.4
v -0.1 1.9 0.4
v 0 1.7 0.4
v 0 1.8 0.4
v 0.1 1.8 0.4
v 0.1 1.9 0.4
v 0.2 1.7 0.4
v 0.2 1.8 0.4
v 0.2 1.9 0.4
v 0.2 2.2 0.4
v 0.2 2.4 0.4
v 0.3 1.7 0.4
v 0.3 1.8 0.4
v 0.3 1.9 0.4
v 0.3 2 0.4
v 0.3 2.1 0.4
v 0.3 2.2 0.4
v 0.3 2.4 0.4
v 0.4 1.8 0.4
v 0.4 1.9 0.4
v 0.4 2 0.4
v 0.5 1.8 0.4
v 0.5 1.9 0.4
v 0.5 2 0.4
v 0.6 1.8 0.4
v 0.6 1.9 0.4
v -0.4 2 0.3
v -0.4 2.1 0.3
v -0.3 2 0.3
v -0.3 2.1 0.3
v 0.3 2 0.3
v 0.3 2.1 0.3
v 0.4 2 0.3
v 0.4 2.1 0.3
v -0.4 1.9 0.2
v -0.4 2 0.2
v -0.3 1.9 0.2
v -0.3 2 0.2
v -0.1 1.8 0.2
v -0.1 1.9 0.2
v 0 1.8 0.2
v 0 1.9 0.2
v 0 2.2 0.2
v 0 2.3 0.2
v 0.1 2.3 0.2
v 0.1 2.4 0.2
v 0.2 2.2 0.2
v 0.2 2.3 0.2
v 0.2 2.4 0.2
v -0.4 1.8 0.1
v -0.4 1.9 0.1
v -0.3 1.8 0.1
v -0.3 1.9 0.1
v -0.2 1.8 0.1
v -0.2 1.9 0.1
v -0.1 1.7 0.1
v -0.1 1.8 0.1
v -0.1 1.9 0.1
v -0.1 2.1 0.1
v -0.1 2.2 0.1
v 0 1.7 0.1
v 0 1.8 0.1
v 0 2.2 0.1
v 0.1 2.1 0.1
v 0.1 2.2 0.1
v -0.4 1.7 0
v -0.4 1.8 0
v -0.3 1.7 0
v -0.3 1.8 0
v -0.3 1.9 0
v -0.2 1.8 0
v -0.2 1.9 0
v -0.1 1.7 0
v -0.1 1.8 0
v -0.1 2.2 -0.1
v -0.1 2.3 -0.1
v 0 2.2 -0.1
v 0 2.3 -0.1
v 0.5 1.8 -0.1
v 0.5 1.9 -0.1
v 0.6 1.8 -0.1
v 0.6 1.9 -0.1
v -0.5 1.7 -0.2
v -0.5 1.8 -0.2
v -0.5 1.9 -0.2
v -0.5 2 -0.2
v -0.4 1.7 -0.2
v -0.4 1.8 -0.2
v -0.4 1.9 -0.2
v -0.4 2 -0.2
v -0.1 1.8 -0.2
v -0.1 1.9 -0.2
v 0 1.8 -0.2
v 0 1.9 -0.2
v 0.3 1.8 -0.2
v 0.3 1.9 -0.2
v 0.4 1.7 -0.2
v 0.4 1.8 -0.2
v 0.4 1.9 -0.2
v 0.5 1.7 -0.2
v 0.5 1.8 -0.2
v 0.5 1.9 -0.2
v -0.6 1.7 -0.3
v -0.6 1.9 -0.3
v -0.5 1.7 -0.3
v -0.5 1.8 -0.3
v -0.5 1.9 -0.3
v -0.4 1.8 -0.3
v -0.4 1.9 -0.3
v -0.1 1.7 -0.3
v -0.1 1.8 -0.3
v 0 1.8 -0.3
v 0 1.9 -0.3
v 0.3 1.8 -0.3
v 0.3 1.9 -0.3
v 0.4 1.7 -0.3
v 0.4 1.8 -0.3
v 0.5 1.6 -0.3
v 0.5 1.7 -0.3
v 0.5 1.8 -0.3
v 0.6 1.6 -0.3
v 0.6 1.8 -0.3
v 0.3 1.8 0.5
v 0.3 1.9 0.5
v 0.4 1.8 0.5
v 0.4 1.9 0.5
v -0.1 1.8 0.3
v -0.1 1.9 0.3
v 0 1.8 0.3
v 0 1.9 0.3
v 0.2 2.2 0.3
v 0.2 2.3 0.3
v 0.3 1.8 0.3
v 0.3 1.9 0.3
v 0.3 2.2 0.3
v 0.3 2.3 0.3
v 0.4 1.8 0.3
v 0.4 1.9 0.3
v 0.5 1.8 0.3
v 0.5 1.9 0.3
v 0.6 1.8 0.3
v 0.6 1.9 0.3
v 0.1 2.2 0.1
v 0.1 2.3 0.1
v 0.1 2.4 0.1
v 0.2 1.7 0.1
v 0.2 1.8 0.1
v 0.2 2.2 0.1
v 0.2 2.3 0.1
v 0.3 1.7 0.1
v 0.3 1.8 0.1
v 0.3 2.3 0.1
v 0.3 2.4 0.1
v -0.1 1.7 0
v -0.1 1.8 0
v 0 1.8 0
v 0 1.9 0
v 0 2.2 0
v 0 2.3 0
v 0.1 2.2 0
v 0.1 2.3 0
v 0.2 1.7 0
v 0.2 1.8 0
v 0.3 1.8 0
v 0.3 1.9 0
v -0.1 1.8 -0.1
v -0.1 1.9 -0.1
v 0 1.8 -0.1
v 0 1.9 -0.1
v 0 2.1 -0.1
v 0 2.2 -0.1
v 0.1 2.1 -0.1
v 0.1 2.2 -0.1
v -0.1 2.1 -0.2
v -0.1 2.2 -0.2
v 0 2.1 -0.2
v 0 2.2 -0.2
v -0.4 2 -0.3
v -0.4 2.1 -0.3
v -0.3 2 -0.3
v -0.3 2.1 -0.3
v -0.1 2.2 -0.3
v -0.1 2.3 -0.3
v 0 2.2 -0.3
v 0 2.3 -0.3
v 0.3 2 -0.3
v 0.3 2.1 -0.3
v 0.4 2 -0.3
v 0.4 2.1 -0.3
v -0.6 1.7 -0.4
v -0.6 1.9 -0.4
v -0.5 1.7 -0.4
v -0.5 1.9 -0.4
v -0.5 2 -0.4
v -0.4 1.9 -0.4
v -0.4 2 -0.4
v -0.3 2 -0.4
v -0.3 2.1 -0.4
v 0.3 2 -0.4
v 0.3 2.1 -0.4
v 0.4 1.9 -0.4
v 0.4 2 -0.4
v 0.5 1.6 -0.4
v 0.5 1.7 -0.4
v 0.5 1.9 -0.4
v 0.5 2 -0.4
v 0.6 1.6 -0.4
v 0.6 1.9 -0.4
v -0.5 1.7 -0.5
v -0.5 1.9 -0.5
v -0.4 1.7 -0.5
v -0.4 1.9 -0.5
v -0.4 2 -0.5
v 0.4 1.7 -0.5
v 0.4 1.9 -0.5
v 0.4 2 -0.5
v 0.5 1.7 -0.5
v 0.5 1.9 -0.5
v -0.4 1.7 -0.6
v -0.4 1.9 -0.6
v 0.4 1.7 -0.6
v 0.4 1.9 -0.6
v 0.5 1.6 -0.3
v 0.6 1.6 -0.3
v 0.5 1.6 -0.4
v 0.6 1.6 -0.4
v 0 1.7 0.4
v 0.2 1.7 0.4
v 0.3 1.7 0.4
v 0.2 1.7 0.3
v 0.3 1.7 0.3
v -0.1 1.7 0.1
v 0 1.7 0.1
v 0.2 1.7 0.1
v 0.3 1.7 0.1
v -0.4 1.7 0
v -0.3 1.7 0
v -0.1 1.7 0
v 0.2 1.7 0
v -0.4 1.7 -0.1
v -0.3 1.7 -0.1
v -0.5 1.7 -0.2
v -0.4 1.7 -0.2
v 0.4 1.7 -0.2
v 0.5 1.7 -0.2
v -0.6 1.7 -0.3
v -0.5 1.7 -0.3
v -0.1 1.7 -0.3
v 0.4 1.7 -0.3
v 0.5 1.7 -0.3
v -0.6 1.7 -0.4
v -0.5 1.7 -0.4
v -0.4 1.7 -0.4
v -0.3 1.7 -0.4
v 0.3 1.7 -0.4
v 0.4 1.7 -0.4
v 0.5 1.7 -0.4
v -0.5 1.7 -0.5
v -0.4 1.7 -0.5
v -0.3 1.7 -0.5
v 0.3 1.7 -0.5
v 0.4 1.7 -0.5
v 0.5 1.7 -0.5
v -0.4 1.7 -0.6
v 0.4 1.7 -0.6
v 0.3 1.8 0.6
v 0.4 1.8 0.6
v 0.2 1.8 0.5
v 0.3 1.8 0.5
v 0.4 1.8 0.5
v -0.1 1.8 0.4
v 0 1.8 0.4
v 0.2 1.8 0.4
v 0.3 1.8 0.4
v 0.4 1.8 0.4
v 0.5 1.8 0.4
v 0.6 1.8 0.4
v -0.1 1.8 0.3
v 0 1.8 0.3
v 0.3 1.8 0.3
v 0.4 1.8 0.3
v 0.5 1.8 0.3
v 0.6 1.8 0.3
v -0.1 1.8 0.2
v 0 1.8 0.2
v -0.4 1.8 0.1
v -0.3 1.8 0.1
v -0.2 1.8 0.1
v -0.1 1.8 0.1
v 0 1.8 0.1
v 0.2 1.8 0.1
v 0.3 1.8 0.1
v -0.4 1.8 0
v -0.3 1.8 0
v -0.2 1.8 0
v -0.1 1.8 0
v 0 1.8 0
v 0.2 1.8 0
v 0.3 1.8 0
v -0.1 1.8 -0.1
v 0 1.8 -0.1
v 0.5 1.8 -0.1
v 0.6 1.8 -0.1
v -0.1 1.8 -0.2
v 0 1.8 -0.2
v 0.3 1.8 -0.2
v 0.4 1.8 -0.2
v 0.5 1.8 -0.2
v -0.1 1.8 -0.3
v 0 1.8 -0.3
v 0.3 1.8 -0.3
v 0.4 1.8 -0.3
v 0.5 1.8 -0.3
v 0.6 1.8 -0.3
v -0.3 1.9 0.5
v 0.2 1.9 0.5
v 0.3 1.9 0.5
v 0.4 1.9 0.5
v -0.2 1.9 0.4
v -0.1 1.9 0.4
v 0.1 1.9 0.4
v 0.2 1.9 0.4
v 0.3 1.9 0.4
v 0.4 1.9 0.4
v 0.5 1.9 0.4
v -0.1 1.9 0.3
v 0 1.9 0.3
v 0.3 1.9 0.3
v 0.4 1.9 0.3
v 0.5 1.9 0.3
v -0.4 1.9 0.2
v -0.3 1.9 0.2
v -0.1 1.9 0.2
v 0 1.9 0.2
v 0.3 1.9 0.2
v -0.4 1.9 0.1
v -0.3 1.9 0.1
v -0.2 1.9 0.1
v -0.1 1.9 0.1
v 0.3 1.9 0.1
v 0.4 1.9 0.1
v -0.3 1.9 0
v -0.2 1.9 0
v 0 1.9 0
v 0.3 1.9 0
v -0.1 1.9 -0.1
v 0 1.9 -0.1
v 0.5 1.9 -0.1
v -0.5 1.9 -0.2
v -0.4 1.9 -0.2
v -0.1 1.9 -0.2
v 0 1.9 -0.2
v 0.3 1.9 -0.2
v 0.4 1.9 -0.2
v 0.5 1.9 -0.2
v -0.5 1.9 -0.3
v -0.4 1.9 -0.3
v 0 1.9 -0.3
v 0.3 1.9 -0.3
v -0.4 2 0.3
v -0.3 2 0.3
v -0.4 2 0.2
v -0.3 2 0.2
v 0.2 2.2 0.4
v 0.3 2.2 0.4
v 0.2 2.2 0.3
v 0.3 2.2 0.3
v 0 2.2 0.2
v 0.2 2.2 0.2
v 0 2.2 0.1
v 0.1 2.2 0.1
v 0.2 2.2 0.1
v -0.1 2.2 -0.2
v 0 2.2 -0.2
v -0.1 2.2 -0.3
v 0 2.2 -0.3
v 0.2 2.3 0.3
v 0.3 2.3 0.3
v 0.2 2.3 0.2
v 0.2 2.3 0.1
v 0.3 2.3 0.1
v -0.5 1.8 -0.2
v -0.4 1.8 -0.2
v -0.5 1.8 -0.3
v -0.4 1.8 -0.3
v 0.3 1.9 0.6
v 0.4 1.9 0.6
v 0.3 1.9 0.5
v 0.4 1.9 0.5
v 0.5 1.9 0.4
v 0.6 1.9 0.4
v 0.5 1.9 0.3
v 0.6 1.9 0.3
v 0.5 1.9 -0.1
v 0.6 1.9 -0.1
v -0.6 1.9 -0.3
v -0.5 1.9 -0.3
v -0.6 1.9 -0.4
v -0.5 1.9 -0.4
v -0.4 1.9 -0.4
v 0.4 1.9 -0.4
v 0.5 1.9 -0.4
v 0.6 1.9 -0.4
v -0.5 1.9 -0.5
v -0.4 1.9 -0.5
v 0.4 1.9 -0.5
v 0.5 1.9 -0.5
v -0.4 1.9 -0.6
v 0.4 1.9 -0.6
v -0.3 2 0.5
v 0.4 2 0.5
v -0.3 2 0.4
v 0.3 2 0.4
v 0.4 2 0.4
v 0.5 2 0.4
v 0.3 2 0.3
v 0.4 2 0.3
v -0.5 2 -0.2
v -0.4 2 -0.2
v -0.4 2 -0.3
v -0.3 2 -0.3
v 0.3 2 -0.3
v 0.4 2 -0.3
v -0.5 2 -0.4
v -0.4 2 -0.4
v -0.3 2 -0.4
v 0.3 2 -0.4
v 0.4 2 -0.4
v 0.5 2 -0.4
v -0.4 2 -0.5
v 0.4 2 -0.5
v -0.3 2.1 0.4
v 0.3 2.1 0.4
v -0.4 2.1 0.3
v -0.3 2.1 0.3
v 0.3 2.1 0.3
v 0.4 2.1 0.3
v -0.1 2.1 0.1
v 0.1 2.1 0.1
v 0 2.1 -0.1
v 0.1 2.1 -0.1
v -0.1 2.1 -0.2
v 0 2.1 -0.2
v -0.4 2.1 -0.3
v -0.3 2.1 -0.3
v 0.3 2.1 -0.3
v 0.4 2.1 -0.3
v -0.3 2.1 -0.4
v 0.3 2.1 -0.4
v -0.1 2.2 0.1
v 0 2.2 0.1
v 0 2.2 0
v 0.1 2.2 0
v -0.1 2.2 -0.1
v 0 2.2 -0.1
v 0.1 2.2 -0.1
v 0 2.3 0.2
v 0.1 2.3 0.2
v 0.1 2.3 0.1
v 0 2.3 0
v 0.1 2.3 0
v -0.1 2.3 -0.1
v 0 2.3 -0.1
v -0.1 2.3 -0.3
v 0 2.3 -0.3
v 0.2 2.4 0.4
v 0.3 2.4 0.4
v 0.1 2.4 0.2
v 0.2 2.4 0.2
v 0.1 2.4 0.1
v 0.3 2.4 0.1

# faces
f 3/1/1 2/1/1 1/1/1
f 4/1/1 2/1/1 3/1/1
f 9/1/1 6/1/1 5/1/1
f 10/1/1 6/1/1 9/1/1
f 13/1/1 8/1/1 7/1/1
f 14/1/1 8/1/1 13/1/1
f 15/1/1 12/1/1 11/1/1
f 15/1/1 13/1/1 12/1/1
f 16/1/1 13/1/1 15/1/1
f 23/1/1 18/1/1 17/1/1
f 24/2/1 19/2/1 18/2/1
f 24/1/1 18/1/1 23/1/1
f 25/2/1 19/2/1 24/2/1
f 28/1/1 23/1/1 22/1/1
f 28/1/1 26/1/1 25/1/1
f 28/1/1 25/1/1 24/1/1
f 28/1/1 24/1/1 23/1/1
f 29/1/1 26/1/1 28/1/1
f 30/1/1 26/1/1 29/1/1
f 32/1/1 21/1/1 20/1/1
f 33/1/1 21/1/1 32/1/1
f 35/1/1 28/1/1 27/1/1
f 35/1/1 29/1/1 28/1/1
f 36/1/1 29/1/1 35/1/1
f 38/1/1 32/1/1 31/1/1
f 39/1/1 32/1/1 38/1/1
f 40/1/1 37/1/1 36/1/1
f 40/1/1 35/1/1 34/1/1
f 40/1/1 36/1/1 35/1/1
f 41/1/1 37/1/1 40/1/1
f 44/1/1 43/1/1 42/1/1
f 45/1/1 43/1/1 44/1/1
f 46/1/1 43/1/1 45/1/1
f 47/1/1 43/1/1 46/1/1
f 50/1/1 46/1/1 45/1/1
f 51/1/1 46/1/1 50/1/1
f 52/1/1 49/1/1 48/1/1
f 53/1/1 49/1/1 52/1/1
f 56/2/1 55/2/1 54/2/1
f 57/2/1 55/2/1 56/2/1
f 63/2/1 59/2/1 58/2/1
f 64/2/1 59/2/1 63/2/1
f 65/2/1 61/2/1 60/2/1
f 66/2/1 61/2/1 65/2/1
f 67/2/1 63/2/1 62/2/1
f 68/2/1 63/2/1 67/2/1
f 71/3/1 70/3/1 69/3/1
f 72/3/1 70/3/1 71/3/1
f 73/3/1 70/3/1 72/3/1
f 75/3/1 74/3/1 73/3/1
f 75/3/1 73/3/1 72/3/1
f 76/3/1 74/3/1 75/3/1
f 79/2/1 78/2/1 77/2/1
f 80/2/1 78/2/1 79/2/1
f 81/2/1 78/2/1 80/2/1
f 82/2/1 78/2/1 81/2/1
f 83/2/1 81/2/1 80/2/1
f 84/2/1 81/2/1 83/2/1
f 88/3/1 86/3/1 85/3/1
f 88/3/1 87/3/1 86/3/1
f 89/3/1 87/3/1 88/3/1
f 92/3/1 91/3/1 90/3/1
f 93/3/1 91/3/1 92/3/1
f 96/1/1 95/1/1 94/1/1
f 97/1/1 95/1/1 96/1/1
f 100/3/1 99/3/1 98/3/1
f 102/3/1 100/3/1 98/3/1
f 102/3/1 101/3/1 100/3/1
f 103/3/1 101/3/1 102/3/1
f 108/1/1 105/1/1 104/1/1
f 109/1/1 105/1/1 108/1/1
f 110/2/1 107/2/1 106/2/1
f 111/2/1 107/2/1 110/2/1
f 114/1/1 113/1/1 112/1/1
f 115/1/1 113/1/1 114/1/1
f 118/1/1 117/1/1 116/1/1
f 119/1/1 117/1/1 118/1/1
f 124/1/1 121/1/1 120/1/1
f 125/1/1 121/1/1 124/1/1
f 126/1/1 123/1/1 122/1/1
f 127/1/1 123/1/1 126/1/1
f 128/1/2 129/1/2 130/1/2
f 130/1/2 129/1/2 131/1/2
f 132/2/2 133/2/2 134/2/2
f 134/2/2 133/2/2 135/2/2
f 135/2/2 133/2/2 136/2/2
f 136/2/2 133/2/2 137/2/2
f 135/2/2 136/2/2 138/2/2
f 138/2/2 136/2/2 139/2/2
f 140/2/2 141/2/2 144/2/2
f 144/2/2 141/2/2 145/2/2
f 142/2/2 143/2/2 146/2/2
f 146/2/2 143/2/2 147/2/2
f 148/3/2 149/3/2 150/3/2
f 150/3/2 149/3/2 151/3/2
f 150/3/2 151/3/2 153/3/2
f 151/3/2 152/3/2 153/3/2
f 153/3/2 152/3/2 154/3/2
f 155/3/2 156/3/2 157/3/2
f 157/3/2 156/3/2 158/3/2
f 158/3/2 156/3/2 159/3/2
f 157/3/2 158/3/2 160/3/2
f 160/3/2 158/3/2 161/3/2
f 162/2/2 163/2/2 164/2/2
f 164/2/2 163/2/2 165/2/2
f 166/3/2 167/3/2 168/3/2
f 168/3/2 167/3/2 169/3/2
f 170/1/2 171/1/2 174/1/2
f 171/2/2 172/2/2 175/2/2
f 174/1/2 171/1/2 175/1/2
f 175/2/2 172/2/2 176/2/2
f 176/2/2 172/2/2 177/2/2
f 173/1/2 174/1/2 179/1/2
f 179/1/2 174/1/2 180/1/2
f 175/1/2 176/1/2 181/1/2
f 177/2/2 178/2/2 182/2/2
f 181/1/2 176/1/2 182/1/2
f 176/2/2 177/2/2 182/2/2
f 182/2/2 178/2/2 183/2/2
f 183/2/2 178/2/2 184/2/2
f 185/1/2 186/1/2 189/1/2
f 189/1/2 186/1/2 190/1/2
f 187/1/2 188/1/2 191/1/2
f 191/1/2 188/1/2 192/1/2
f 193/3/2 194/3/2 195/3/2
f 193/3/2 195/3/2 197/3/2
f 195/3/2 196/3/2 197/3/2
f 197/3/2 196/3/2 198/3/2
f 201/1/2 202/1/2 205/1/2
f 205/1/2 202/1/2 206/1/2
f 203/1/2 204/1/2 207/1/2
f 207/1/2 204/1/2 208/1/2
f 199/1/2 200/1/2 210/1/2
f 210/1/2 200/1/2 211/1/2
f 206/1/2 207/1/2 212/1/2
f 212/1/2 207/1/2 213/1/2
f 209/1/2 210/1/2 216/1/2
f 216/1/2 210/1/2 217/1/2
f 214/1/2 215/1/2 218/1/2
f 218/1/2 215/1/2 219/1/2
f 220/1/2 221/1/2 224/1/2
f 224/1/2 221/1/2 225/1/2
f 222/1/2 223/1/2 229/1/2
f 229/1/2 223/1/2 230/1/2
f 227/1/2 228/1/2 231/1/2
f 226/1/2 227/1/2 231/1/2
f 228/1/2 229/1/2 231/1/2
f 231/1/2 229/1/2 232/1/2
f 233/1/2 234/1/2 238/1/2
f 235/1/2 236/1/2 239/1/2
f 239/1/2 236/1/2 240/1/2
f 237/1/2 238/1/2 241/1/2
f 238/1/2 234/1/2 242/1/2
f 241/1/2 238/1/2 242/1/2
f 245/1/3 244/1/3 243/1/3
f 246/1/3 244/1/3 245/1/3
f 250/1/3 248/1/3 247/1/3
f 251/1/3 250/1/3 249/1/3
f 252/1/3 248/1/3 250/1/3
f 252/1/3 250/1/3 251/1/3
f 253/1/3 248/1/3 252/1/3
f 254/1/3 248/1/3 253/1/3
f 260/2/3 258/2/3 257/2/3
f 261/2/3 258/2/3 260/2/3
f 261/2/3 260/2/3 259/2/3
f 262/2/3 258/2/3 261/2/3
f 263/2/3 261/2/3 259/2/3
f 264/1/3 262/1/3 261/1/3
f 264/2/3 261/2/3 263/2/3
f 265/1/3 262/1/3 264/1/3
f 268/1/3 264/1/3 263/1/3
f 269/1/3 264/1/3 268/1/3
f 271/1/3 256/1/3 255/1/3
f 272/1/3 256/1/3 271/1/3
f 273/3/3 267/3/3 266/3/3
f 274/3/3 267/3/3 273/3/3
f 275/1/3 270/1/3 269/1/3
f 276/1/3 270/1/3 275/1/3
f 279/1/3 277/1/3 276/1/3
f 280/1/3 277/1/3 279/1/3
f 281/1/3 279/1/3 278/1/3
f 282/1/3 279/1/3 281/1/3
f 285/1/3 284/1/3 283/1/3
f 286/1/3 284/1/3 285/1/3
f 289/1/3 288/1/3 287/1/3
f 290/1/3 288/1/3 289/1/3
f 293/1/3 292/1/3 291/1/3
f 294/1/3 292/1/3 293/1/3
f 297/2/3 296/2/3 295/2/3
f 298/2/3 296/2/3 297/2/3
f 301/3/3 300/3/3 299/3/3
f 303/3/3 301/3/3 299/3/3
f 303/3/3 302/3/3 301/3/3
f 304/3/3 302/3/3 303/3/3
f 305/3/3 302/3/3 304/3/3
f 308/1/3 307/1/3 306/1/3
f 309/1/3 307/1/3 308/1/3
f 313/2/3 311/2/3 310/2/3
f 314/2/3 311/2/3 313/2/3
f 317/2/3 313/2/3 312/2/3
f 318/2/3 313/2/3 317/2/3
f 319/3/3 316/3/3 315/3/3
f 320/3/3 319/3/3 315/3/3
f 321/3/3 319/3/3 320/3/3
f 324/1/3 323/1/3 322/1/3
f 325/1/3 323/1/3 324/1/3
f 327/2/3 325/2/3 324/2/3
f 327/2/3 326/2/3 325/2/3
f 328/2/3 326/2/3 327/2/3
f 329/2/3 327/2/3 324/2/3
f 330/2/3 327/2/3 329/2/3
f 333/3/3 332/3/3 331/3/3
f 334/3/3 332/3/3 333/3/3
f 337/1/3 336/1/3 335/1/3
f 338/1/3 336/1/3 337/1/3
f 343/1/3 340/1/3 339/1/3
f 344/1/3 340/1/3 343/1/3
f 345/1/3 342/1/3 341/1/3
f 346/1/3 342/1/3 345/1/3
f 349/2/3 348/2/3 347/2/3
f 350/2/3 348/2/3 349/2/3
f 354/2/3 352/2/3 351/2/3
f 355/2/3 352/2/3 354/2/3
f 356/1/3 354/1/3 353/1/3
f 356/1/3 355/1/3 354/1/3
f 357/1/3 355/1/3 356/1/3
f 358/1/3 355/1/3 357/1/3
f 361/1/3 360/1/3 359/1/3
f 362/1/3 360/1/3 361/1/3
f 363/1/3 360/1/3 362/1/3
f 364/1/3 363/1/3 362/1/3
f 365/1/3 363/1/3 364/1/3
f 368/2/3 367/2/3 366/2/3
f 370/2/3 368/2/3 366/2/3
f 370/2/3 369/2/3 368/2/3
f 371/2/3 369/2/3 370/2/3
f 372/2/3 370/2/3 366/2/3
f 373/2/3 370/2/3 372/2/3
f 377/1/3 375/1/3 374/1/3
f 377/1/3 376/1/3 375/1/3
f 378/1/3 376/1/3 377/1/3
f 379/1/4 380/1/4 381/1/4
f 381/1/4 380/1/4 382/1/4
f 383/2/4 384/2/4 385/2/4
f 385/2/4 384/2/4 386/2/4
f 387/3/4 388/3/4 391/3/4
f 391/3/4 388/3/4 392/3/4
f 389/1/4 390/1/4 393/1/4
f 393/1/4 390/1/4 394/1/4
f 395/1/4 396/1/4 397/1/4
f 397/1/4 396/1/4 398/1/4
f 399/3/4 400/3/4 404/3/4
f 400/3/4 401/3/4 404/3/4
f 404/3/4 401/3/4 405/3/4
f 402/2/4 403/2/4 406/2/4
f 406/2/4 403/2/4 407/2/4
f 405/3/4 401/3/4 408/3/4
f 408/3/4 401/3/4 409/3/4
f 410/2/4 411/2/4 412/2/4
f 414/3/4 415/3/4 416/3/4
f 416/3/4 415/3/4 417/3/4
f 410/2/4 412/2/4 418/2/4
f 412/2/4 413/2/4 418/2/4
f 418/2/4 413/2/4 419/2/4
f 419/2/4 413/2/4 420/2/4
f 420/2/4 413/2/4 421/2/4
f 422/2/4 423/2/4 424/2/4
f 424/2/4 423/2/4 425/2/4
f 426/3/4 427/3/4 428/3/4
f 428/3/4 427/3/4 429/3/4
f 430/3/4 431/3/4 432/3/4
f 432/3/4 431/3/4 433/3/4
f 434/1/4 435/1/4 436/1/4
f 436/1/4 435/1/4 437/1/4
f 438/3/4 439/3/4 440/3/4
f 440/3/4 439/3/4 441/3/4
f 442/1/4 443/1/4 444/1/4
f 444/1/4 443/1/4 445/1/4
f 446/1/4 447/1/4 448/1/4
f 448/1/4 447/1/4 449/1/4
f 449/1/4 450/1/4 451/1/4
f 451/1/4 450/1/4 452/1/4
f 453/1/4 454/1/4 455/1/4
f 455/1/4 454/1/4 456/1/4
f 457/1/4 458/1/4 461/1/4
f 461/1/4 458/1/4 462/1/4
f 459/1/4 460/1/4 463/1/4
f 460/1/4 461/1/4 463/1/4
f 463/1/4 461/1/4 464/1/4
f 465/1/4 466/1/4 467/1/4
f 467/1/4 466/1/4 468/1/4
f 468/1/4 469/1/4 471/1/4
f 471/1/4 469/1/4 472/1/4
f 470/1/4 471/1/4 473/1/4
f 473/1/4 471/1/4 474/1/4
f 475/1/4 476/1/4 477/1/4
f 477/1/4 476/1/4 478/1/4
f 481/1/5 480/1/5 479/1/5
f 482/1/5 480/1/5 481/1/5
f 486/2/5 484/2/5 483/2/5
f 486/1/5 485/1/5 484/1/5
f 487/1/5 485/1/5 486/1/5
f 489/2/5 486/2/5 483/2/5
f 489/2/5 487/2/5 486/2/5
f 490/2/5 487/2/5 489/2/5
f 491/2/5 487/2/5 490/2/5
f 494/2/5 489/2/5 488/2/5
f 494/2/5 490/2/5 489/2/5
f 495/2/5 490/2/5 494/2/5
f 496/1/5 493/1/5 492/1/5
f 497/2/5 494/2/5 493/2/5
f 497/1/5 493/1/5 496/1/5
f 499/2/5 497/2/5 496/2/5
f 503/1/5 499/1/5 498/1/5
f 504/2/5 497/2/5 499/2/5
f 504/2/5 494/2/5 497/2/5
f 505/1/5 501/1/5 500/1/5
f 506/1/5 501/1/5 505/1/5
f 507/1/5 503/1/5 502/1/5
f 508/1/5 499/1/5 503/1/5
f 508/1/5 503/1/5 507/1/5
f 509/2/5 504/2/5 499/2/5
f 509/1/5 499/1/5 508/1/5
f 509/2/5 505/2/5 504/2/5
f 510/2/5 505/2/5 509/2/5
f 511/2/5 505/2/5 510/2/5
f 512/1/5 506/1/5 505/1/5
f 512/2/5 505/2/5 511/2/5
f 513/1/5 506/1/5 512/1/5
f 514/1/5 509/1/5 508/1/5
f 514/1/5 510/1/5 509/1/5
f 515/1/5 510/1/5 514/1/5
f 516/2/5 511/2/5 510/2/5
f 516/1/5 510/1/5 515/1/5
f 517/1/5 513/1/5 512/1/5
f 517/2/5 511/2/5 516/2/5
f 517/1/5 512/1/5 511/1/5
f 518/1/5 513/1/5 517/1/5
f 519/1/5 513/1/5 518/1/5
f 520/1/5 516/1/5 515/1/5
f 520/1/5 518/1/5 517/1/5
f 520/1/5 517/1/5 516/1/5
f 521/1/5 518/1/5 520/1/5
f 525/1/5 523/1/5 522/1/5
f 526/1/5 523/1/5 525/1/5
f 529/1/5 525/1/5 524/1/5
f 530/1/5 525/1/5 529/1/5
f 534/2/5 528/2/5 527/2/5
f 535/2/5 528/2/5 534/2/5
f 536/1/5 531/1/5 530/1/5
f 537/1/5 531/1/5 536/1/5
f 538/1/5 533/1/5 532/1/5
f 539/1/5 533/1/5 538/1/5
f 545/2/5 541/2/5 540/2/5
f 546/2/5 541/2/5 545/2/5
f 549/1/5 543/1/5 542/1/5
f 550/1/5 543/1/5 549/1/5
f 551/2/5 545/2/5 544/2/5
f 552/2/5 545/2/5 551/2/5
f 554/2/5 548/2/5 547/2/5
f 555/2/5 548/2/5 554/2/5
f 556/2/5 553/2/5 552/2/5
f 557/2/5 553/2/5 556/2/5
f 564/1/5 559/1/5 558/1/5
f 565/2/5 561/2/5 560/2/5
f 566/2/5 561/2/5 565/2/5
f 567/2/5 563/2/5 562/2/5
f 568/2/5 563/2/5 567/2/5
f 569/1/5 559/1/5 564/1/5
f 570/1/5 559/1/5 569/1/5
f 575/1/5 572/1/5 571/1/5
f 576/1/5 572/1/5 575/1/5
f 577/1/5 572/1/5 576/1/5
f 578/1/5 572/1/5 577/1/5
f 579/1/5 574/1/5 573/1/5
f 580/1/5 574/1/5 579/1/5
f 582/2/5 576/2/5 575/2/5
f 585/1/5 581/1/5 580/1/5
f 586/1/5 581/1/5 585/1/5
f 588/1/5 575/1/5 571/1/5
f 589/2/5 583/2/5 582/2/5
f 589/2/5 582/2/5 575/2/5
f 590/2/5 583/2/5 589/2/5
f 591/1/5 585/1/5 584/1/5
f 591/1/5 586/1/5 585/1/5
f 592/1/5 588/1/5 587/1/5
f 593/1/5 575/1/5 588/1/5
f 593/1/5 588/1/5 592/1/5
f 594/2/5 589/2/5 575/2/5
f 594/1/5 575/1/5 593/1/5
f 595/2/5 589/2/5 594/2/5
f 596/1/5 586/1/5 591/1/5
f 597/1/5 586/1/5 596/1/5
f 598/1/5 594/1/5 593/1/5
f 599/1/5 594/1/5 598/1/5
f 601/2/5 597/2/5 596/2/5
f 603/2/5 601/2/5 600/2/5
f 604/1/5 586/1/5 597/1/5
f 607/2/5 603/2/5 602/2/5
f 608/2/5 601/2/5 603/2/5
f 608/2/5 603/2/5 607/2/5
f 609/2/5 597/2/5 601/2/5
f 609/2/5 601/2/5 608/2/5
f 610/1/5 604/1/5 597/1/5
f 610/2/5 597/2/5 609/2/5
f 611/1/5 604/1/5 610/1/5
f 612/1/5 606/1/5 605/1/5
f 613/1/5 606/1/5 612/1/5
f 614/2/5 609/2/5 608/2/5
f 615/2/5 609/2/5 614/2/5
f 618/1/5 617/1/5 616/1/5
f 619/1/5 617/1/5 618/1/5
f 622/3/5 621/3/5 620/3/5
f 623/3/5 621/3/5 622/3/5
f 626/3/5 625/3/5 624/3/5
f 627/3/5 625/3/5 626/3/5
f 628/3/5 625/3/5 627/3/5
f 631/3/5 630/3/5 629/3/5
f 632/3/5 630/3/5 631/3/5
f 635/3/5 634/3/5 633/3/5
f 636/3/5 634/3/5 635/3/5
f 637/3/5 634/3/5 636/3/5
f 638/1/6 639/1/6 640/1/6
f 640/1/6 639/1/6 641/1/6
f 642/1/6 643/1/6 644/1/6
f 644/1/6 643/1/6 645/1/6
f 646/1/6 647/1/6 648/1/6
f 648/1/6 647/1/6 649/1/6
f 652/1/6 653/1/6 654/1/6
f 654/1/6 653/1/6 655/1/6
f 650/1/6 651/1/6 658/1/6
f 658/1/6 651/1/6 659/1/6
f 655/1/6 656/1/6 660/1/6
f 660/1/6 656/1/6 661/1/6
f 657/1/6 658/1/6 662/1/6
f 662/1/6 658/1/6 663/1/6
f 661/1/6 662/1/6 664/1/6
f 664/1/6 662/1/6 665/1/6
f 666/1/6 667/1/6 668/1/6
f 668/1/6 667/1/6 669/1/6
f 669/1/6 667/1/6 670/1/6
f 670/1/6 671/1/6 672/1/6
f 669/1/6 670/1/6 672/1/6
f 672/1/6 671/1/6 673/1/6
f 674/1/6 675/1/6 676/1/6
f 673/1/6 671/1/6 679/1/6
f 676/1/6 677/1/6 680/1/6
f 674/1/6 676/1/6 680/1/6
f 680/1/6 677/1/6 681/1/6
f 681/1/6 677/1/6 682/1/6
f 678/1/6 679/1/6 683/1/6
f 679/1/6 671/1/6 684/1/6
f 683/1/6 679/1/6 684/1/6
f 684/1/6 671/1/6 685/1/6
f 681/1/6 682/1/6 686/1/6
f 682/1/6 683/1/6 686/1/6
f 683/1/6 684/1/6 686/1/6
f 686/1/6 684/1/6 687/1/6
f 688/1/6 689/1/6 691/1/6
f 691/1/6 689/1/6 692/1/6
f 690/1/6 691/1/6 694/1/6
f 692/1/6 693/1/6 694/1/6
f 691/1/6 692/1/6 694/1/6
f 694/1/6 693/1/6 695/1/6
f 695/1/6 693/1/6 697/1/6
f 690/1/6 694/1/6 698/1/6
f 696/1/6 697/1/6 699/1/6
f 690/1/6 698/1/6 700/1/6
f 698/1/6 699/1/6 700/1/6
f 700/1/6 699/1/6 701/1/6
f 699/1/6 697/1/6 702/1/6
f 701/1/6 699/1/6 702/1/6
f 697/1/6 693/1/6 702/1/6
f 702/1/6 693/1/6 703/1/6
f 701/1/6 702/1/6 704/1/6
f 704/1/6 702/1/6 705/1/6
f 706/3/6 707/3/6 708/3/6
f 706/3/6 708/3/6 710/3/6
f 708/3/6 709/3/6 710/3/6
f 710/3/6 709/3/6 711/3/6
f 711/3/6 709/3/6 712/3/6
f 713/3/6 714/3/6 715/3/6
f 713/3/6 715/3/6 716/3/6
f 716/3/6 715/3/6 717/3/6
f 718/3/6 719/3/6 720/3/6
f 720/3/6 719/3/6 721/3/6
f 722/3/6 723/3/6 725/3/6
f 724/3/6 725/3/6 726/3/6
f 725/3/6 723/3/6 727/3/6
f 726/3/6 725/3/6 727/3/6
