# MagicaVoxel @ Ephtracy

# group
o 

# material
mtllib Bunny-Bit-7-(White).mtl
usemtl palette

# normals
vn -1 0 0
vn 1 0 0
vn 0 0 1
vn 0 0 -1
vn 0 -1 0
vn 0 1 0

# texcoords
vt 0.0292969 0.5
vt 0.0566406 0.5
vt 0.958984 0.5

# verts
v -0.1 1.5 0.1
v -0.1 1.5 0
v -0.1 1.6 0.1
v -0.1 1.6 0
v -0.1 1.6 -0.1
v -0.1 1.7 0.2
v -0.1 1.7 0.1
v -0.1 1.7 0
v -0.1 1.7 -0.1
v -0.1 1.8 0.2
v -0.1 1.8 0.1
v 1.49012e-08 1.5 0
v 1.49012e-08 1.5 -0.1
v 1.49012e-08 1.6 0.2
v 1.49012e-08 1.6 0.1
v 1.49012e-08 1.6 0
v 1.49012e-08 1.6 -0.1
v 1.49012e-08 1.7 0.3
v 1.49012e-08 1.7 0.2
v 1.49012e-08 1.7 0.1
v 1.49012e-08 1.7 0
v 1.49012e-08 1.8 0.2
v 1.49012e-08 1.8 0.1
v 1.49012e-08 1.8 0
v 1.49012e-08 1.9 0.3
v 1.49012e-08 1.9 0.1
v 0.1 1.5 0.1
v 0.1 1.5 -0.1
v 0.1 1.6 0.2
v 0.1 1.6 0.1
v 0.1 1.6 0
v 0.1 1.7 0.3
v 0.1 1.7 0.2
v 0.1 1.7 0.1
v 0.1 1.7 0
v 0.1 1.7 -0.1
v 0.1 1.8 0.2
v 0.1 1.8 0.1
v 0.1 1.8 0
v 0.1 1.9 0.3
v 0.1 1.9 0.1
v 1.49012e-08 1.7 0.3
v 1.49012e-08 1.9 0.3
v 0.1 1.7 0.3
v 0.1 1.9 0.3
v -0.1 1.7 0.2
v -0.1 1.8 0.2
v 1.49012e-08 1.6 0.2
v 1.49012e-08 1.7 0.2
v 1.49012e-08 1.8 0.2
v 0.1 1.6 0.2
v 0.1 1.7 0.2
v -0.1 1.5 0.1
v -0.1 1.6 0.1
v -0.1 1.7 0.1
v 1.49012e-08 1.6 0.1
v 1.49012e-08 1.7 0.1
v 0.1 1.5 0.1
v 0.1 1.6 0.1
v -0.1 1.7 0.1
v -0.1 1.8 0.1
v 1.49012e-08 1.7 0.1
v 1.49012e-08 1.8 0.1
v 1.49012e-08 1.9 0.1
v 0.1 1.8 0.1
v 0.1 1.9 0.1
v -0.1 1.5 0
v -0.1 1.6 0
v 1.49012e-08 1.5 0
v 1.49012e-08 1.6 0
v 1.49012e-08 1.7 0
v 1.49012e-08 1.8 0
v 0.1 1.7 0
v 0.1 1.8 0
v -0.1 1.6 -0.1
v -0.1 1.7 -0.1
v 1.49012e-08 1.5 -0.1
v 1.49012e-08 1.6 -0.1
v 0.1 1.5 -0.1
v 0.1 1.7 -0.1
v -0.1 1.5 0.1
v 0.1 1.5 0.1
v -0.1 1.5 0
v 1.49012e-08 1.5 0
v 1.49012e-08 1.5 -0.1
v 0.1 1.5 -0.1
v 1.49012e-08 1.6 0.2
v 0.1 1.6 0.2
v 1.49012e-08 1.6 0.1
v 0.1 1.6 0.1
v -0.1 1.6 0
v 1.49012e-08 1.6 0
v -0.1 1.6 -0.1
v 1.49012e-08 1.6 -0.1
v 1.49012e-08 1.7 0.3
v 0.1 1.7 0.3
v -0.1 1.7 0.2
v 1.49012e-08 1.7 0.2
v 0.1 1.7 0.2
v -0.1 1.7 0.1
v 1.49012e-08 1.7 0.1
v -0.1 1.7 0.1
v 1.49012e-08 1.7 0.1
v -0.1 1.7 0
v 1.49012e-08 1.7 0
v 0.1 1.7 0
v -0.1 1.7 -0.1
v 0.1 1.7 -0.1
v -0.1 1.8 0.2
v 1.49012e-08 1.8 0.2
v -0.1 1.8 0.1
v 1.49012e-08 1.8 0.1
v 0.1 1.8 0.1
v 1.49012e-08 1.8 0
v 0.1 1.8 0
v 1.49012e-08 1.9 0.3
v 0.1 1.9 0.3
v 1.49012e-08 1.9 0.1
v 0.1 1.9 0.1

# faces
f 3/2/1 2/2/1 1/2/1
f 4/2/1 2/2/1 3/2/1
f 7/3/1 4/3/1 3/3/1
f 8/2/1 5/2/1 4/2/1
f 8/3/1 4/3/1 7/3/1
f 9/2/1 5/2/1 8/2/1
f 10/3/1 7/3/1 6/3/1
f 11/3/1 7/3/1 10/3/1
f 16/2/1 13/2/1 12/2/1
f 17/2/1 13/2/1 16/2/1
f 19/3/1 15/3/1 14/3/1
f 20/3/1 15/3/1 19/3/1
f 22/3/1 19/3/1 18/3/1
f 23/3/1 21/3/1 20/3/1
f 24/3/1 21/3/1 23/3/1
f 25/3/1 22/3/1 18/3/1
f 25/3/1 23/3/1 22/3/1
f 26/3/1 23/3/1 25/3/1
f 27/2/2 28/2/2 30/2/2
f 30/2/2 28/2/2 31/2/2
f 29/3/2 30/3/2 33/3/2
f 30/1/2 31/1/2 34/1/2
f 33/3/2 30/3/2 34/3/2
f 31/2/2 28/2/2 35/2/2
f 34/1/2 31/1/2 35/1/2
f 35/2/2 28/2/2 36/2/2
f 33/1/2 34/1/2 37/1/2
f 32/3/2 33/3/2 37/3/2
f 34/3/2 35/3/2 38/3/2
f 37/1/2 34/1/2 38/1/2
f 38/3/2 35/3/2 39/3/2
f 32/3/2 37/3/2 40/3/2
f 37/3/2 38/3/2 40/3/2
f 40/3/2 38/3/2 41/3/2
f 44/3/3 43/3/3 42/3/3
f 45/3/3 43/3/3 44/3/3
f 49/3/3 47/3/3 46/3/3
f 50/3/3 47/3/3 49/3/3
f 51/3/3 49/3/3 48/3/3
f 52/3/3 49/3/3 51/3/3
f 56/2/3 54/2/3 53/2/3
f 56/3/3 55/3/3 54/3/3
f 57/3/3 55/3/3 56/3/3
f 58/2/3 56/2/3 53/2/3
f 59/2/3 56/2/3 58/2/3
f 60/3/4 61/3/4 62/3/4
f 62/3/4 61/3/4 63/3/4
f 63/3/4 64/3/4 65/3/4
f 65/3/4 64/3/4 66/3/4
f 67/2/4 68/2/4 69/2/4
f 69/2/4 68/2/4 70/2/4
f 71/3/4 72/3/4 73/3/4
f 73/3/4 72/3/4 74/3/4
f 75/2/4 76/2/4 78/2/4
f 77/2/4 78/2/4 79/2/4
f 78/2/4 76/2/4 80/2/4
f 79/2/4 78/2/4 80/2/4
f 83/2/5 82/2/5 81/2/5
f 84/2/5 82/2/5 83/2/5
f 85/2/5 82/2/5 84/2/5
f 86/2/5 82/2/5 85/2/5
f 89/3/5 88/3/5 87/3/5
f 90/3/5 88/3/5 89/3/5
f 93/2/5 92/2/5 91/2/5
f 94/2/5 92/2/5 93/2/5
f 98/3/5 96/3/5 95/3/5
f 99/3/5 96/3/5 98/3/5
f 100/3/5 98/3/5 97/3/5
f 101/3/5 98/3/5 100/3/5
f 102/3/6 103/3/6 104/3/6
f 104/3/6 103/3/6 105/3/6
f 104/2/6 105/2/6 107/2/6
f 105/2/6 106/2/6 107/2/6
f 107/2/6 106/2/6 108/2/6
f 109/3/6 110/3/6 111/3/6
f 111/3/6 110/3/6 112/3/6
f 112/3/6 113/3/6 114/3/6
f 114/3/6 113/3/6 115/3/6
f 116/3/6 117/3/6 118/3/6
f 118/3/6 117/3/6 119/3/6
