# MagicaVoxel @ Ephtracy

# group
o 

# material
mtllib Bunny-Bit-5-(White).mtl
usemtl palette

# normals
vn -1 0 0
vn 1 0 0
vn 0 0 1
vn 0 0 -1
vn 0 -1 0
vn 0 1 0

# texcoords
vt 0.0292969 0.5
vt 0.0566406 0.5
vt 0.958984 0.5
vt 0.994141 0.5

# verts
v -0.2 1.5 0
v -0.2 1.5 -0.1
v -0.2 1.6 0.1
v -0.2 1.6 0
v -0.2 1.7 0.1
v -0.2 1.7 -0.1
v -0.1 1.5 0.1
v -0.1 1.5 0
v -0.1 1.5 -0.2
v -0.1 1.5 -0.3
v -0.1 1.6 0.2
v -0.1 1.6 0.1
v -0.1 1.6 0
v -0.1 1.6 -0.1
v -0.1 1.6 -0.2
v -0.1 1.6 -0.3
v -0.1 1.7 0.1
v -0.1 1.7 -0.1
v -0.1 1.7 -0.2
v -0.1 1.8 0.3
v -0.1 1.8 0.2
v -0.1 1.8 0.1
v -0.1 1.8 -0.1
v -0.1 1.8 -0.2
v -0.1 1.9 0.3
v -0.1 1.9 0.2
v -0.1 1.9 0.1
v -0.1 1.9 -0.1
v -0.1 1.9 -0.2
v -0.1 1.9 -0.3
v -0.1 2 0.2
v -0.1 2 0.1
v -0.1 2 -0.1
v -0.1 2 -0.2
v -0.1 2.1 0.4
v -0.1 2.1 0.3
v -0.1 2.1 0.2
v -0.1 2.1 -0.2
v -0.1 2.1 -0.3
v -0.1 2.1 -0.4
v -0.1 2.2 0.4
v -0.1 2.2 0.3
v -0.1 2.2 -0.3
v -0.1 2.2 -0.4
v 0 1.5 0.2
v 0 1.5 0.1
v 0 1.5 -0.1
v 0 1.5 -0.2
v 0 1.6 0.2
v 0 1.6 0.1
v 0 1.6 -0.1
v 0 1.6 -0.2
v 0 1.7 -0.1
v 0 1.7 -0.2
v 0 1.8 -0.1
v 0 1.8 -0.2
v 0 1.8 -0.3
v 0 1.9 0.4
v 0 1.9 0.3
v 0 1.9 0.1
v 0 1.9 0
v 0 1.9 -0.1
v 0 1.9 -0.2
v 0 1.9 -0.3
v 0 1.9 -0.4
v 0 2 0.2
v 0 2 0.1
v 0 2 0
v 0 2 -0.1
v 0 2 -0.2
v 0 2.1 0.5
v 0 2.1 0.4
v 0 2.1 0.3
v 0 2.1 0.2
v 0 2.1 0.1
v 0 2.1 -0.1
v 0 2.1 -0.2
v 0 2.1 -0.3
v 0 2.1 -0.4
v 0 2.1 -0.5
v 0 2.2 0.4
v 0 2.2 0.3
v 0 2.2 0.2
v 0 2.2 -0.2
v 0 2.2 -0.3
v 0 2.2 -0.4
v 0 2.3 0.5
v 0 2.3 0.3
v 0 2.3 -0.3
v 0 2.3 -0.5
v 0 1.5 -0.2
v 0 1.5 -0.3
v 0 1.6 -0.2
v 0 1.6 -0.3
v 0.1 1.8 0.3
v 0.1 1.8 0.2
v 0.1 1.8 -0.2
v 0.1 1.8 -0.3
v 0.1 1.9 0.4
v 0.1 1.9 0.3
v 0.1 1.9 0.2
v 0.1 1.9 0.1
v 0.1 1.9 0
v 0.1 1.9 -0.2
v 0.1 1.9 -0.3
v 0.1 1.9 -0.4
v 0.1 2 0.2
v 0.1 2 0.1
v 0.1 2 0
v 0.1 2 -0.1
v 0.1 2.1 0.5
v 0.1 2.1 0.4
v 0.1 2.1 0.3
v 0.1 2.1 0.2
v 0.1 2.1 0.1
v 0.1 2.1 -0.1
v 0.1 2.1 -0.2
v 0.1 2.1 -0.3
v 0.1 2.1 -0.4
v 0.1 2.1 -0.5
v 0.1 2.2 0.4
v 0.1 2.2 0.3
v 0.1 2.2 0.2
v 0.1 2.2 -0.2
v 0.1 2.2 -0.3
v 0.1 2.2 -0.4
v 0.1 2.3 0.5
v 0.1 2.3 0.3
v 0.1 2.3 -0.3
v 0.1 2.3 -0.5
v 0.2 1.5 0.2
v 0.2 1.5 0.1
v 0.2 1.5 -0.1
v 0.2 1.5 -0.2
v 0.2 1.6 0.2
v 0.2 1.6 0.1
v 0.2 1.6 -0.1
v 0.2 1.6 -0.2
v 0.2 1.7 0
v 0.2 1.7 -0.1
v 0.2 1.8 0.2
v 0.2 1.8 0.1
v 0.2 1.8 -0.1
v 0.2 1.8 -0.2
v 0.2 1.9 0.2
v 0.2 1.9 0
v 0.2 1.9 -0.2
v 0.3 1.5 0.1
v 0.3 1.5 -0.1
v 0.3 1.6 0.1
v 0.3 1.6 -0.1
v 0 2.1 0.5
v 0 2.3 0.5
v 0.1 2.1 0.5
v 0.1 2.3 0.5
v -0.1 2.1 0.4
v -0.1 2.2 0.4
v 0 1.9 0.4
v 0 2.1 0.4
v 0 2.2 0.4
v 0.1 1.9 0.4
v 0.1 2.1 0.4
v -0.1 1.8 0.3
v -0.1 1.9 0.3
v -0.1 2.1 0.3
v 0 1.8 0.3
v 0 1.9 0.3
v 0 2.1 0.3
v 0.1 1.8 0.3
v 0.1 1.9 0.3
v -0.1 1.6 0.2
v -0.1 1.8 0.2
v 0 1.5 0.2
v 0 1.6 0.2
v 0 1.8 0.2
v 0.1 1.5 0.2
v 0.1 1.6 0.2
v 0.1 1.8 0.2
v 0.1 1.9 0.2
v 0.2 1.5 0.2
v 0.2 1.6 0.2
v 0.2 1.8 0.2
v 0.2 1.9 0.2
v -0.2 1.6 0.1
v -0.2 1.7 0.1
v -0.1 1.5 0.1
v -0.1 1.6 0.1
v -0.1 1.7 0.1
v 0 1.5 0.1
v 0 1.6 0.1
v 0.2 1.5 0.1
v 0.2 1.6 0.1
v 0.3 1.5 0.1
v 0.3 1.6 0.1
v -0.2 1.5 0
v -0.2 1.6 0
v -0.1 1.5 0
v -0.1 1.6 0
v -0.1 1.9 -0.1
v -0.1 2 -0.1
v 0 1.9 -0.1
v 0 2 -0.1
v 0 2.1 -0.1
v 0.1 2 -0.1
v 0.1 2.1 -0.1
v -0.1 1.5 -0.2
v -0.1 1.6 -0.2
v -0.1 2 -0.2
v -0.1 2.1 -0.2
v 0 1.5 -0.2
v 0 1.6 -0.2
v 0 2 -0.2
v 0 2.1 -0.2
v 0 2.2 -0.2
v 0.1 2.1 -0.2
v 0.1 2.2 -0.2
v -0.1 2.1 -0.3
v -0.1 2.2 -0.3
v 0 2.1 -0.3
v 0 2.2 -0.3
v 0 2.3 -0.3
v 0.1 2.2 -0.3
v 0.1 2.3 -0.3
v -0.1 2.1 0.3
v -0.1 2.2 0.3
v 0 2.1 0.3
v 0 2.2 0.3
v 0 2.3 0.3
v 0.1 2.2 0.3
v 0.1 2.3 0.3
v -0.1 2 0.2
v -0.1 2.1 0.2
v 0 2 0.2
v 0 2.1 0.2
v 0 2.2 0.2
v 0.1 2.1 0.2
v 0.1 2.2 0.2
v -0.1 1.9 0.1
v -0.1 2 0.1
v 0 1.9 0.1
v 0 2 0.1
v 0 2.1 0.1
v 0.1 2 0.1
v 0.1 2.1 0.1
v -0.2 1.5 -0.1
v -0.2 1.7 -0.1
v -0.1 1.6 -0.1
v -0.1 1.7 -0.1
v -0.1 1.8 -0.1
v 0 1.5 -0.1
v 0 1.6 -0.1
v 0 1.7 -0.1
v 0 1.8 -0.1
v 0.2 1.5 -0.1
v 0.2 1.6 -0.1
v 0.3 1.5 -0.1
v 0.3 1.6 -0.1
v -0.1 1.6 -0.2
v -0.1 1.7 -0.2
v -0.1 1.8 -0.2
v -0.1 1.9 -0.2
v 0 1.5 -0.2
v 0 1.6 -0.2
v 0 1.7 -0.2
v 0 1.8 -0.2
v 0 1.9 -0.2
v 0.1 1.5 -0.2
v 0.1 1.6 -0.2
v 0.1 1.8 -0.2
v 0.1 1.9 -0.2
v 0.2 1.5 -0.2
v 0.2 1.6 -0.2
v 0.2 1.8 -0.2
v 0.2 1.9 -0.2
v -0.1 1.5 -0.3
v -0.1 1.6 -0.3
v -0.1 1.9 -0.3
v -0.1 2.1 -0.3
v 0 1.5 -0.3
v 0 1.6 -0.3
v 0 1.8 -0.3
v 0 1.9 -0.3
v 0 2.1 -0.3
v 0.1 1.8 -0.3
v 0.1 1.9 -0.3
v -0.1 2.1 -0.4
v -0.1 2.2 -0.4
v 0 1.9 -0.4
v 0 2.1 -0.4
v 0 2.2 -0.4
v 0.1 1.9 -0.4
v 0.1 2.1 -0.4
v 0 2.1 -0.5
v 0 2.3 -0.5
v 0.1 2.1 -0.5
v 0.1 2.3 -0.5
v 0 1.5 0.2
v 0.1 1.5 0.2
v 0.2 1.5 0.2
v -0.1 1.5 0.1
v 0 1.5 0.1
v 0.2 1.5 0.1
v 0.3 1.5 0.1
v -0.2 1.5 0
v -0.1 1.5 0
v -0.2 1.5 -0.1
v 0 1.5 -0.1
v 0.2 1.5 -0.1
v 0.3 1.5 -0.1
v -0.1 1.5 -0.2
v 0 1.5 -0.2
v 0.1 1.5 -0.2
v 0.2 1.5 -0.2
v -0.1 1.5 -0.3
v 0 1.5 -0.3
v -0.1 1.6 0.2
v 0 1.6 0.2
v -0.2 1.6 0.1
v -0.1 1.6 0.1
v 0 1.6 0.1
v -0.2 1.6 0
v -0.1 1.6 0
v -0.1 1.6 -0.1
v 0 1.6 -0.1
v -0.1 1.6 -0.2
v 0 1.6 -0.2
v -0.1 1.8 0.3
v 0 1.8 0.3
v 0.1 1.8 0.3
v -0.1 1.8 0.2
v 0 1.8 0.2
v 0.1 1.8 0.2
v -0.1 1.8 -0.1
v 0 1.8 -0.1
v -0.1 1.8 -0.2
v 0 1.8 -0.2
v 0.1 1.8 -0.2
v 0 1.8 -0.3
v 0.1 1.8 -0.3
v 0 1.9 0.4
v 0.1 1.9 0.4
v 0 1.9 0.3
v 0.1 1.9 0.3
v -0.1 1.9 -0.2
v 0 1.9 -0.2
v -0.1 1.9 -0.3
v 0 1.9 -0.3
v 0.1 1.9 -0.3
v 0 1.9 -0.4
v 0.1 1.9 -0.4
v 0 2.1 0.5
v 0.1 2.1 0.5
v -0.1 2.1 0.4
v 0 2.1 0.4
v 0.1 2.1 0.4
v -0.1 2.1 0.3
v 0 2.1 0.3
v -0.1 2.1 -0.3
v 0 2.1 -0.3
v -0.1 2.1 -0.4
v 0 2.1 -0.4
v 0.1 2.1 -0.4
v 0 2.1 -0.5
v 0.1 2.1 -0.5
v 0.2 1.6 0.1
v 0.3 1.6 0.1
v 0.2 1.6 -0.1
v 0.3 1.6 -0.1
v -0.1 1.6 -0.2
v 0 1.6 -0.2
v -0.1 1.6 -0.3
v 0 1.6 -0.3
v -0.2 1.7 0.1
v -0.1 1.7 0.1
v -0.2 1.7 -0.1
v -0.1 1.7 -0.1
v 0 1.7 -0.1
v -0.1 1.7 -0.2
v 0 1.7 -0.2
v 0.1 1.9 0.2
v 0.2 1.9 0.2
v -0.1 1.9 0.1
v 0 1.9 0.1
v 0.1 1.9 0.1
v 0 1.9 0
v 0.1 1.9 0
v 0.2 1.9 0
v -0.1 1.9 -0.1
v 0 1.9 -0.1
v 0.1 1.9 -0.2
v 0.2 1.9 -0.2
v -0.1 2 0.2
v 0 2 0.2
v -0.1 2 0.1
v 0 2 0.1
v 0.1 2 0.1
v 0 2 0
v 0.1 2 0
v -0.1 2 -0.1
v 0 2 -0.1
v 0.1 2 -0.1
v -0.1 2 -0.2
v 0 2 -0.2
v -0.1 2.1 0.3
v 0 2.1 0.3
v -0.1 2.1 0.2
v 0 2.1 0.2
v 0.1 2.1 0.2
v 0 2.1 0.1
v 0.1 2.1 0.1
v 0 2.1 -0.1
v 0.1 2.1 -0.1
v -0.1 2.1 -0.2
v 0 2.1 -0.2
v 0.1 2.1 -0.2
v -0.1 2.1 -0.3
v 0 2.1 -0.3
v -0.1 2.2 0.4
v 0 2.2 0.4
v -0.1 2.2 0.3
v 0 2.2 0.3
v 0.1 2.2 0.3
v 0 2.2 0.2
v 0.1 2.2 0.2
v 0 2.2 -0.2
v 0.1 2.2 -0.2
v -0.1 2.2 -0.3
v 0 2.2 -0.3
v 0.1 2.2 -0.3
v -0.1 2.2 -0.4
v 0 2.2 -0.4
v 0 2.3 0.5
v 0.1 2.3 0.5
v 0 2.3 0.3
v 0.1 2.3 0.3
v 0 2.3 -0.3
v 0.1 2.3 -0.3
v 0 2.3 -0.5
v 0.1 2.3 -0.5

# faces
f 4/2/1 2/2/1 1/2/1
f 5/2/1 4/2/1 3/2/1
f 6/2/1 2/2/1 4/2/1
f 6/2/1 4/2/1 5/2/1
f 12/2/1 8/2/1 7/2/1
f 13/2/1 8/2/1 12/2/1
f 15/2/1 10/2/1 9/2/1
f 16/2/1 10/2/1 15/2/1
f 17/2/1 12/2/1 11/2/1
f 18/2/1 15/2/1 14/2/1
f 19/2/1 15/2/1 18/2/1
f 21/2/1 17/2/1 11/2/1
f 21/2/1 18/2/1 17/2/1
f 22/2/1 18/2/1 21/2/1
f 23/2/1 18/2/1 22/2/1
f 25/2/1 21/2/1 20/2/1
f 26/3/1 22/3/1 21/3/1
f 26/2/1 21/2/1 25/2/1
f 27/2/1 24/2/1 23/2/1
f 27/3/1 22/3/1 26/3/1
f 27/2/1 23/2/1 22/2/1
f 28/2/1 24/2/1 27/2/1
f 29/2/1 24/2/1 28/2/1
f 31/3/1 26/3/1 25/3/1
f 31/3/1 27/3/1 26/3/1
f 32/3/1 27/3/1 31/3/1
f 33/2/1 29/2/1 28/2/1
f 33/2/1 30/2/1 29/2/1
f 34/2/1 30/2/1 33/2/1
f 36/3/1 31/3/1 25/3/1
f 37/3/1 31/3/1 36/3/1
f 38/2/1 30/2/1 34/2/1
f 39/2/1 30/2/1 38/2/1
f 41/3/1 36/3/1 35/3/1
f 42/3/1 36/3/1 41/3/1
f 43/3/1 40/3/1 39/3/1
f 44/3/1 40/3/1 43/3/1
f 49/2/1 46/2/1 45/2/1
f 50/2/1 46/2/1 49/2/1
f 51/2/1 48/2/1 47/2/1
f 52/2/1 48/2/1 51/2/1
f 55/2/1 54/2/1 53/2/1
f 56/2/1 54/2/1 55/2/1
f 63/3/1 57/3/1 56/3/1
f 64/3/1 57/3/1 63/3/1
f 67/3/1 61/3/1 60/3/1
f 68/2/1 62/2/1 61/2/1
f 68/3/1 61/3/1 67/3/1
f 69/2/1 62/2/1 68/2/1
f 72/3/1 59/3/1 58/3/1
f 73/3/1 59/3/1 72/3/1
f 74/3/1 67/3/1 66/3/1
f 75/3/1 67/3/1 74/3/1
f 76/2/1 70/2/1 69/2/1
f 77/2/1 70/2/1 76/2/1
f 78/3/1 65/3/1 64/3/1
f 79/3/1 65/3/1 78/3/1
f 81/3/1 72/3/1 71/3/1
f 82/3/1 74/3/1 73/3/1
f 83/3/1 74/3/1 82/3/1
f 84/3/1 78/3/1 77/3/1
f 85/3/1 78/3/1 84/3/1
f 86/3/1 80/3/1 79/3/1
f 87/3/1 81/3/1 71/3/1
f 87/3/1 82/3/1 81/3/1
f 88/3/1 82/3/1 87/3/1
f 89/3/1 86/3/1 85/3/1
f 90/3/1 80/3/1 86/3/1
f 90/3/1 86/3/1 89/3/1
f 91/2/2 92/2/2 93/2/2
f 93/2/2 92/2/2 94/2/2
f 95/3/2 96/3/2 100/3/2
f 100/3/2 96/3/2 101/3/2
f 97/3/2 98/3/2 104/3/2
f 104/3/2 98/3/2 105/3/2
f 100/1/2 101/1/2 107/1/2
f 101/1/2 102/1/2 107/1/2
f 102/3/2 103/3/2 108/3/2
f 107/1/2 102/1/2 108/1/2
f 103/2/2 104/2/2 109/2/2
f 108/3/2 103/3/2 109/3/2
f 109/2/2 104/2/2 110/2/2
f 99/3/2 100/3/2 112/3/2
f 100/1/2 107/1/2 113/1/2
f 112/3/2 100/3/2 113/3/2
f 107/3/2 108/3/2 114/3/2
f 113/1/2 107/1/2 114/1/2
f 114/3/2 108/3/2 115/3/2
f 110/2/2 104/2/2 116/2/2
f 104/1/2 105/1/2 117/1/2
f 116/2/2 104/2/2 117/2/2
f 105/3/2 106/3/2 118/3/2
f 117/1/2 105/1/2 118/1/2
f 118/3/2 106/3/2 119/3/2
f 111/3/2 112/3/2 121/3/2
f 112/1/2 113/1/2 121/1/2
f 113/3/2 114/3/2 122/3/2
f 121/1/2 113/1/2 122/1/2
f 122/3/2 114/3/2 123/3/2
f 117/3/2 118/3/2 124/3/2
f 118/1/2 119/1/2 125/1/2
f 124/3/2 118/3/2 125/3/2
f 119/3/2 120/3/2 126/3/2
f 125/1/2 119/1/2 126/1/2
f 111/3/2 121/3/2 127/3/2
f 121/3/2 122/3/2 127/3/2
f 127/3/2 122/3/2 128/3/2
f 125/3/2 126/3/2 129/3/2
f 126/3/2 120/3/2 130/3/2
f 129/3/2 126/3/2 130/3/2
f 131/3/2 132/3/2 135/3/2
f 135/3/2 132/3/2 136/3/2
f 133/3/2 134/3/2 137/3/2
f 137/3/2 134/3/2 138/3/2
f 136/3/2 137/3/2 139/3/2
f 137/4/2 138/4/2 140/4/2
f 139/3/2 137/3/2 140/3/2
f 135/4/2 136/4/2 141/4/2
f 136/3/2 139/3/2 142/3/2
f 141/4/2 136/4/2 142/4/2
f 140/4/2 138/4/2 143/4/2
f 139/2/2 140/2/2 143/2/2
f 143/4/2 138/4/2 144/4/2
f 141/3/2 142/3/2 145/3/2
f 142/3/2 139/3/2 146/3/2
f 145/3/2 142/3/2 146/3/2
f 139/2/2 143/2/2 146/2/2
f 143/2/2 144/2/2 146/2/2
f 146/2/2 144/2/2 147/2/2
f 148/1/2 149/1/2 150/1/2
f 150/1/2 149/1/2 151/1/2
f 154/3/3 153/3/3 152/3/3
f 155/3/3 153/3/3 154/3/3
f 159/3/3 157/3/3 156/3/3
f 160/3/3 157/3/3 159/3/3
f 161/3/3 159/3/3 158/3/3
f 162/3/3 159/3/3 161/3/3
f 166/2/3 164/2/3 163/2/3
f 167/3/3 165/3/3 164/3/3
f 167/2/3 164/2/3 166/2/3
f 168/3/3 165/3/3 167/3/3
f 169/3/3 167/3/3 166/3/3
f 170/3/3 167/3/3 169/3/3
f 174/2/3 172/2/3 171/2/3
f 175/2/3 172/2/3 174/2/3
f 176/2/3 174/2/3 173/2/3
f 176/2/3 175/2/3 174/2/3
f 177/2/3 175/2/3 176/2/3
f 178/2/3 175/2/3 177/2/3
f 180/3/3 177/3/3 176/3/3
f 181/4/3 178/4/3 177/4/3
f 181/3/3 177/3/3 180/3/3
f 182/3/3 179/3/3 178/3/3
f 182/4/3 178/4/3 181/4/3
f 183/3/3 179/3/3 182/3/3
f 187/2/3 185/2/3 184/2/3
f 188/2/3 185/2/3 187/2/3
f 189/2/3 187/2/3 186/2/3
f 190/2/3 187/2/3 189/2/3
f 193/1/3 192/1/3 191/1/3
f 194/1/3 192/1/3 193/1/3
f 197/2/3 196/2/3 195/2/3
f 198/2/3 196/2/3 197/2/3
f 201/2/3 200/2/3 199/2/3
f 202/2/3 200/2/3 201/2/3
f 204/2/3 203/2/3 202/2/3
f 205/2/3 203/2/3 204/2/3
f 210/2/3 207/2/3 206/2/3
f 211/2/3 207/2/3 210/2/3
f 212/2/3 209/2/3 208/2/3
f 213/2/3 209/2/3 212/2/3
f 215/3/3 214/3/3 213/3/3
f 216/3/3 214/3/3 215/3/3
f 219/3/3 218/3/3 217/3/3
f 220/3/3 218/3/3 219/3/3
f 222/3/3 221/3/3 220/3/3
f 223/3/3 221/3/3 222/3/3
f 224/3/4 225/3/4 226/3/4
f 226/3/4 225/3/4 227/3/4
f 227/3/4 228/3/4 229/3/4
f 229/3/4 228/3/4 230/3/4
f 231/3/4 232/3/4 233/3/4
f 233/3/4 232/3/4 234/3/4
f 234/3/4 235/3/4 236/3/4
f 236/3/4 235/3/4 237/3/4
f 238/3/4 239/3/4 240/3/4
f 240/3/4 239/3/4 241/3/4
f 241/3/4 242/3/4 243/3/4
f 243/3/4 242/3/4 244/3/4
f 245/2/4 246/2/4 247/2/4
f 247/2/4 246/2/4 248/2/4
f 245/2/4 247/2/4 250/2/4
f 250/2/4 247/2/4 251/2/4
f 248/2/4 249/2/4 252/2/4
f 252/2/4 249/2/4 253/2/4
f 254/1/4 255/1/4 256/1/4
f 256/1/4 255/1/4 257/1/4
f 258/2/4 259/2/4 263/2/4
f 263/2/4 259/2/4 264/2/4
f 260/2/4 261/2/4 265/2/4
f 265/2/4 261/2/4 266/2/4
f 263/2/4 264/2/4 267/2/4
f 262/2/4 263/2/4 267/2/4
f 264/2/4 265/2/4 267/2/4
f 267/2/4 265/2/4 268/2/4
f 268/2/4 265/2/4 269/2/4
f 267/3/4 268/3/4 271/3/4
f 268/4/4 269/4/4 272/4/4
f 271/3/4 268/3/4 272/3/4
f 269/2/4 270/2/4 273/2/4
f 272/4/4 269/4/4 273/4/4
f 273/2/4 270/2/4 274/2/4
f 275/2/4 276/2/4 279/2/4
f 279/2/4 276/2/4 280/2/4
f 277/2/4 278/2/4 282/2/4
f 282/2/4 278/2/4 283/2/4
f 281/3/4 282/3/4 284/3/4
f 284/3/4 282/3/4 285/3/4
f 286/3/4 287/3/4 289/3/4
f 289/3/4 287/3/4 290/3/4
f 288/3/4 289/3/4 291/3/4
f 291/3/4 289/3/4 292/3/4
f 293/3/4 294/3/4 295/3/4
f 295/3/4 294/3/4 296/3/4
f 301/2/5 298/2/5 297/2/5
f 302/3/5 299/3/5 298/3/5
f 305/2/5 301/2/5 300/2/5
f 306/2/5 305/2/5 304/2/5
f 307/2/5 298/2/5 301/2/5
f 307/2/5 305/2/5 306/2/5
f 307/2/5 301/2/5 305/2/5
f 308/1/5 303/1/5 302/1/5
f 308/3/5 302/3/5 298/3/5
f 309/1/5 303/1/5 308/1/5
f 311/2/5 298/2/5 307/2/5
f 312/3/5 308/3/5 298/3/5
f 312/2/5 298/2/5 311/2/5
f 313/3/5 308/3/5 312/3/5
f 314/2/5 311/2/5 310/2/5
f 315/2/5 311/2/5 314/2/5
f 319/2/5 317/2/5 316/2/5
f 320/2/5 317/2/5 319/2/5
f 321/2/5 319/2/5 318/2/5
f 322/2/5 319/2/5 321/2/5
f 325/2/5 324/2/5 323/2/5
f 326/2/5 324/2/5 325/2/5
f 330/2/5 328/2/5 327/2/5
f 331/3/5 329/3/5 328/3/5
f 331/2/5 328/2/5 330/2/5
f 332/3/5 329/3/5 331/3/5
f 335/2/5 334/2/5 333/2/5
f 336/2/5 334/2/5 335/2/5
f 338/3/5 337/3/5 336/3/5
f 339/3/5 337/3/5 338/3/5
f 342/3/5 341/3/5 340/3/5
f 343/3/5 341/3/5 342/3/5
f 346/2/5 345/2/5 344/2/5
f 347/2/5 345/2/5 346/2/5
f 349/3/5 348/3/5 347/3/5
f 350/3/5 348/3/5 349/3/5
f 354/3/5 352/3/5 351/3/5
f 355/3/5 352/3/5 354/3/5
f 356/3/5 354/3/5 353/3/5
f 357/3/5 354/3/5 356/3/5
f 360/3/5 359/3/5 358/3/5
f 361/3/5 359/3/5 360/3/5
f 363/3/5 362/3/5 361/3/5
f 364/3/5 362/3/5 363/3/5
f 365/1/6 366/1/6 367/1/6
f 367/1/6 366/1/6 368/1/6
f 369/2/6 370/2/6 371/2/6
f 371/2/6 370/2/6 372/2/6
f 373/2/6 374/2/6 375/2/6
f 375/2/6 374/2/6 376/2/6
f 376/2/6 377/2/6 378/2/6
f 378/2/6 377/2/6 379/2/6
f 380/3/6 381/3/6 384/3/6
f 382/2/6 383/2/6 385/2/6
f 384/3/6 381/3/6 386/3/6
f 386/3/6 381/3/6 387/3/6
f 382/2/6 385/2/6 388/2/6
f 388/2/6 385/2/6 389/2/6
f 386/2/6 387/2/6 390/2/6
f 390/2/6 387/2/6 391/2/6
f 392/3/6 393/3/6 394/3/6
f 394/3/6 393/3/6 395/3/6
f 395/3/6 396/3/6 397/3/6
f 397/3/6 396/3/6 398/3/6
f 397/2/6 398/2/6 400/2/6
f 400/2/6 398/2/6 401/2/6
f 399/2/6 400/2/6 402/2/6
f 402/2/6 400/2/6 403/2/6
f 404/3/6 405/3/6 406/3/6
f 406/3/6 405/3/6 407/3/6
f 407/3/6 408/3/6 409/3/6
f 409/3/6 408/3/6 410/3/6
f 411/2/6 412/2/6 414/2/6
f 414/2/6 412/2/6 415/2/6
f 413/2/6 414/2/6 416/2/6
f 416/2/6 414/2/6 417/2/6
f 418/3/6 419/3/6 420/3/6
f 420/3/6 419/3/6 421/3/6
f 421/3/6 422/3/6 423/3/6
f 423/3/6 422/3/6 424/3/6
f 425/3/6 426/3/6 428/3/6
f 428/3/6 426/3/6 429/3/6
f 427/3/6 428/3/6 430/3/6
f 430/3/6 428/3/6 431/3/6
f 432/3/6 433/3/6 434/3/6
f 434/3/6 433/3/6 435/3/6
f 436/3/6 437/3/6 438/3/6
f 438/3/6 437/3/6 439/3/6
